solid RES_ERA6A_0805
facet normal 1 0 0
  outer loop
    vertex 17.5 -25.5 1
    vertex 17.5 25.5 23
    vertex 17.5 -25.5 23
  endloop
endfacet
facet normal 1 0 0
  outer loop
    vertex 17.5 -25.5 1
    vertex 17.5 25.5 1
    vertex 17.5 25.5 23
  endloop
endfacet
facet normal -1 0 0
  outer loop
    vertex -17.5 25.5 1
    vertex -17.5 -25.5 23
    vertex -17.5 25.5 23
  endloop
endfacet
facet normal -1 0 0
  outer loop
    vertex -17.5 25.5 1
    vertex -17.5 -25.5 1
    vertex -17.5 -25.5 23
  endloop
endfacet
facet normal 0 -1 0
  outer loop
    vertex -17.5 -25.5 1
    vertex 17.5 -25.5 23
    vertex -17.5 -25.5 23
  endloop
endfacet
facet normal 0 -1 0
  outer loop
    vertex -17.5 -25.5 1
    vertex 17.5 -25.5 1
    vertex 17.5 -25.5 23
  endloop
endfacet
facet normal 0 1 0
  outer loop
    vertex 17.5 25.5 1
    vertex -17.5 25.5 23
    vertex 17.5 25.5 23
  endloop
endfacet
facet normal 0 1 0
  outer loop
    vertex 17.5 25.5 1
    vertex -17.5 25.5 1
    vertex -17.5 25.5 23
  endloop
endfacet
facet normal 0 0 -1
  outer loop
    vertex 17.5 -25.5 1
    vertex -17.5 25.5 1
    vertex 17.5 25.5 1
  endloop
endfacet
facet normal 0 0 -1
  outer loop
    vertex 17.5 -25.5 1
    vertex -17.5 -25.5 1
    vertex -17.5 25.5 1
  endloop
endfacet
facet normal 0 0 1
  outer loop
    vertex 17.5 -25.5 23
    vertex 17.5 25.5 23
    vertex -17.5 25.5 23
  endloop
endfacet
facet normal 0 0 1
  outer loop
    vertex 17.5 -25.5 23
    vertex -17.5 25.5 23
    vertex -17.5 -25.5 23
  endloop
endfacet
facet normal 1 0 0
  outer loop
    vertex 43.5 -26.5 0
    vertex 43.5 26.5 24
    vertex 43.5 -26.5 24
  endloop
endfacet
facet normal 1 0 0
  outer loop
    vertex 43.5 -26.5 0
    vertex 43.5 26.5 0
    vertex 43.5 26.5 24
  endloop
endfacet
facet normal -1 0 0
  outer loop
    vertex 17.5 26.5 0
    vertex 17.5 -26.5 24
    vertex 17.5 26.5 24
  endloop
endfacet
facet normal -1 0 0
  outer loop
    vertex 17.5 26.5 0
    vertex 17.5 -26.5 0
    vertex 17.5 -26.5 24
  endloop
endfacet
facet normal 0 -1 0
  outer loop
    vertex 17.5 -26.5 0
    vertex 43.5 -26.5 24
    vertex 17.5 -26.5 24
  endloop
endfacet
facet normal 0 -1 0
  outer loop
    vertex 17.5 -26.5 0
    vertex 43.5 -26.5 0
    vertex 43.5 -26.5 24
  endloop
endfacet
facet normal 0 1 0
  outer loop
    vertex 43.5 26.5 0
    vertex 17.5 26.5 24
    vertex 43.5 26.5 24
  endloop
endfacet
facet normal 0 1 0
  outer loop
    vertex 43.5 26.5 0
    vertex 17.5 26.5 0
    vertex 17.5 26.5 24
  endloop
endfacet
facet normal 0 0 -1
  outer loop
    vertex 43.5 -26.5 0
    vertex 17.5 26.5 0
    vertex 43.5 26.5 0
  endloop
endfacet
facet normal 0 0 -1
  outer loop
    vertex 43.5 -26.5 0
    vertex 17.5 -26.5 0
    vertex 17.5 26.5 0
  endloop
endfacet
facet normal 0 0 1
  outer loop
    vertex 43.5 -26.5 24
    vertex 43.5 26.5 24
    vertex 17.5 26.5 24
  endloop
endfacet
facet normal 0 0 1
  outer loop
    vertex 43.5 -26.5 24
    vertex 17.5 26.5 24
    vertex 17.5 -26.5 24
  endloop
endfacet
facet normal -1 0 0
  outer loop
    vertex -43.5 26.5 0
    vertex -43.5 -26.5 24
    vertex -43.5 26.5 24
  endloop
endfacet
facet normal -1 0 0
  outer loop
    vertex -43.5 26.5 0
    vertex -43.5 -26.5 0
    vertex -43.5 -26.5 24
  endloop
endfacet
facet normal 1 0 0
  outer loop
    vertex -17.5 -26.5 0
    vertex -17.5 26.5 24
    vertex -17.5 -26.5 24
  endloop
endfacet
facet normal 1 0 0
  outer loop
    vertex -17.5 -26.5 0
    vertex -17.5 26.5 0
    vertex -17.5 26.5 24
  endloop
endfacet
facet normal 0 1 0
  outer loop
    vertex -17.5 26.5 0
    vertex -43.5 26.5 24
    vertex -17.5 26.5 24
  endloop
endfacet
facet normal 0 1 0
  outer loop
    vertex -17.5 26.5 0
    vertex -43.5 26.5 0
    vertex -43.5 26.5 24
  endloop
endfacet
facet normal 0 -1 0
  outer loop
    vertex -43.5 -26.5 0
    vertex -17.5 -26.5 24
    vertex -43.5 -26.5 24
  endloop
endfacet
facet normal 0 -1 0
  outer loop
    vertex -43.5 -26.5 0
    vertex -17.5 -26.5 0
    vertex -17.5 -26.5 24
  endloop
endfacet
facet normal 0 0 -1
  outer loop
    vertex -43.5 26.5 0
    vertex -17.5 -26.5 0
    vertex -43.5 -26.5 0
  endloop
endfacet
facet normal 0 0 -1
  outer loop
    vertex -43.5 26.5 0
    vertex -17.5 26.5 0
    vertex -17.5 -26.5 0
  endloop
endfacet
facet normal 0 0 1
  outer loop
    vertex -43.5 26.5 24
    vertex -43.5 -26.5 24
    vertex -17.5 -26.5 24
  endloop
endfacet
facet normal 0 0 1
  outer loop
    vertex -43.5 26.5 24
    vertex -17.5 -26.5 24
    vertex -17.5 26.5 24
  endloop
endfacet
endsolid RES_ERA6A_0805
