solid KTT5_6P22X6P86-M
facet normal 0 0 -1
  outer loop
    vertex -133.85828 -155.95537954039 67
    vertex -123.560034555766 -153.906931159221 67
    vertex -123.35828 -155.95537954039 67
  endloop
endfacet
facet normal 0 0 -1
  outer loop
    vertex -133.85828 -155.95537954039 67
    vertex -124.157544908631 -151.937203500557 67
    vertex -123.560034555766 -153.906931159221 67
  endloop
endfacet
facet normal 0 0 -1
  outer loop
    vertex -133.85828 -155.95537954039 67
    vertex -125.127849070823 -150.121892093684 67
    vertex -124.157544908631 -151.937203500557 67
  endloop
endfacet
facet normal 0 0 -1
  outer loop
    vertex -133.85828 -155.95537954039 67
    vertex -126.433658797541 -148.530758337931 67
    vertex -125.127849070823 -150.121892093684 67
  endloop
endfacet
facet normal 0 0 -1
  outer loop
    vertex -133.85828 -155.95537954039 67
    vertex -128.024792553294 -147.224948611213 67
    vertex -126.433658797541 -148.530758337931 67
  endloop
endfacet
facet normal 0 0 -1
  outer loop
    vertex -133.85828 -155.95537954039 67
    vertex -129.840103960167 -146.254644449022 67
    vertex -128.024792553294 -147.224948611213 67
  endloop
endfacet
facet normal 0 0 -1
  outer loop
    vertex -133.85828 -155.95537954039 67
    vertex -131.809831618831 -145.657134096156 67
    vertex -129.840103960167 -146.254644449022 67
  endloop
endfacet
facet normal 0 0 -1
  outer loop
    vertex -133.85828 -155.95537954039 67
    vertex -133.85828 -145.45537954039 67
    vertex -131.809831618831 -145.657134096156 67
  endloop
endfacet
facet normal 0 0 -1
  outer loop
    vertex -133.85828 -155.95537954039 67
    vertex -135.906728381169 -145.657134096156 67
    vertex -133.85828 -145.45537954039 67
  endloop
endfacet
facet normal 0 0 -1
  outer loop
    vertex -133.85828 -155.95537954039 67
    vertex -137.876456039833 -146.254644449022 67
    vertex -135.906728381169 -145.657134096156 67
  endloop
endfacet
facet normal 0 0 -1
  outer loop
    vertex -133.85828 -155.95537954039 67
    vertex -139.691767446706 -147.224948611213 67
    vertex -137.876456039833 -146.254644449022 67
  endloop
endfacet
facet normal 0 0 -1
  outer loop
    vertex -133.85828 -155.95537954039 67
    vertex -141.282901202459 -148.530758337931 67
    vertex -139.691767446706 -147.224948611213 67
  endloop
endfacet
facet normal 0 0 -1
  outer loop
    vertex -133.85828 -155.95537954039 67
    vertex -142.588710929177 -150.121892093684 67
    vertex -141.282901202459 -148.530758337931 67
  endloop
endfacet
facet normal 0 0 -1
  outer loop
    vertex -133.85828 -155.95537954039 67
    vertex -143.559015091369 -151.937203500557 67
    vertex -142.588710929177 -150.121892093684 67
  endloop
endfacet
facet normal 0 0 -1
  outer loop
    vertex -133.85828 -155.95537954039 67
    vertex -144.156525444234 -153.906931159221 67
    vertex -143.559015091369 -151.937203500557 67
  endloop
endfacet
facet normal 0 0 -1
  outer loop
    vertex -133.85828 -155.95537954039 67
    vertex -144.35828 -155.95537954039 67
    vertex -144.156525444234 -153.906931159221 67
  endloop
endfacet
facet normal 0 0 -1
  outer loop
    vertex -133.85828 -155.95537954039 67
    vertex -144.156525444234 -158.003827921559 67
    vertex -144.35828 -155.95537954039 67
  endloop
endfacet
facet normal 0 0 -1
  outer loop
    vertex -133.85828 -155.95537954039 67
    vertex -143.559015091369 -159.973555580224 67
    vertex -144.156525444234 -158.003827921559 67
  endloop
endfacet
facet normal 0 0 -1
  outer loop
    vertex -133.85828 -155.95537954039 67
    vertex -142.588710929177 -161.788866987096 67
    vertex -143.559015091369 -159.973555580224 67
  endloop
endfacet
facet normal 0 0 -1
  outer loop
    vertex -133.85828 -155.95537954039 67
    vertex -141.282901202459 -163.380000742849 67
    vertex -142.588710929177 -161.788866987096 67
  endloop
endfacet
facet normal 0 0 -1
  outer loop
    vertex -133.85828 -155.95537954039 67
    vertex -139.691767446706 -164.685810469567 67
    vertex -141.282901202459 -163.380000742849 67
  endloop
endfacet
facet normal 0 0 -1
  outer loop
    vertex -133.85828 -155.95537954039 67
    vertex -137.876456039833 -165.656114631759 67
    vertex -139.691767446706 -164.685810469567 67
  endloop
endfacet
facet normal 0 0 -1
  outer loop
    vertex -133.85828 -155.95537954039 67
    vertex -135.906728381169 -166.253624984624 67
    vertex -137.876456039833 -165.656114631759 67
  endloop
endfacet
facet normal 0 0 -1
  outer loop
    vertex -133.85828 -155.95537954039 67
    vertex -133.85828 -166.45537954039 67
    vertex -135.906728381169 -166.253624984624 67
  endloop
endfacet
facet normal 0 0 -1
  outer loop
    vertex -133.85828 -155.95537954039 67
    vertex -131.809831618831 -166.253624984624 67
    vertex -133.85828 -166.45537954039 67
  endloop
endfacet
facet normal 0 0 -1
  outer loop
    vertex -133.85828 -155.95537954039 67
    vertex -129.840103960167 -165.656114631759 67
    vertex -131.809831618831 -166.253624984624 67
  endloop
endfacet
facet normal 0 0 -1
  outer loop
    vertex -133.85828 -155.95537954039 67
    vertex -128.024792553294 -164.685810469567 67
    vertex -129.840103960167 -165.656114631759 67
  endloop
endfacet
facet normal 0 0 -1
  outer loop
    vertex -133.85828 -155.95537954039 67
    vertex -126.433658797541 -163.380000742849 67
    vertex -128.024792553294 -164.685810469567 67
  endloop
endfacet
facet normal 0 0 -1
  outer loop
    vertex -133.85828 -155.95537954039 67
    vertex -125.127849070823 -161.788866987096 67
    vertex -126.433658797541 -163.380000742849 67
  endloop
endfacet
facet normal 0 0 -1
  outer loop
    vertex -133.85828 -155.95537954039 67
    vertex -124.157544908631 -159.973555580224 67
    vertex -125.127849070823 -161.788866987096 67
  endloop
endfacet
facet normal 0 0 -1
  outer loop
    vertex -133.85828 -155.95537954039 67
    vertex -123.560034555766 -158.003827921559 67
    vertex -124.157544908631 -159.973555580224 67
  endloop
endfacet
facet normal 0 0 -1
  outer loop
    vertex -133.85828 -155.95537954039 67
    vertex -123.35828 -155.95537954039 67
    vertex -123.560034555766 -158.003827921559 67
  endloop
endfacet
facet normal 0 0 1
  outer loop
    vertex -133.85828 -155.95537954039 67.1
    vertex -123.35828 -155.95537954039 67.1
    vertex -123.560034555766 -153.906931159221 67.1
  endloop
endfacet
facet normal 0 0 1
  outer loop
    vertex -133.85828 -155.95537954039 67.1
    vertex -123.560034555766 -153.906931159221 67.1
    vertex -124.157544908631 -151.937203500557 67.1
  endloop
endfacet
facet normal 0 0 1
  outer loop
    vertex -133.85828 -155.95537954039 67.1
    vertex -124.157544908631 -151.937203500557 67.1
    vertex -125.127849070823 -150.121892093684 67.1
  endloop
endfacet
facet normal 0 0 1
  outer loop
    vertex -133.85828 -155.95537954039 67.1
    vertex -125.127849070823 -150.121892093684 67.1
    vertex -126.433658797541 -148.530758337931 67.1
  endloop
endfacet
facet normal 0 0 1
  outer loop
    vertex -133.85828 -155.95537954039 67.1
    vertex -126.433658797541 -148.530758337931 67.1
    vertex -128.024792553294 -147.224948611213 67.1
  endloop
endfacet
facet normal 0 0 1
  outer loop
    vertex -133.85828 -155.95537954039 67.1
    vertex -128.024792553294 -147.224948611213 67.1
    vertex -129.840103960167 -146.254644449022 67.1
  endloop
endfacet
facet normal 0 0 1
  outer loop
    vertex -133.85828 -155.95537954039 67.1
    vertex -129.840103960167 -146.254644449022 67.1
    vertex -131.809831618831 -145.657134096156 67.1
  endloop
endfacet
facet normal 0 0 1
  outer loop
    vertex -133.85828 -155.95537954039 67.1
    vertex -131.809831618831 -145.657134096156 67.1
    vertex -133.85828 -145.45537954039 67.1
  endloop
endfacet
facet normal 0 0 1
  outer loop
    vertex -133.85828 -155.95537954039 67.1
    vertex -133.85828 -145.45537954039 67.1
    vertex -135.906728381169 -145.657134096156 67.1
  endloop
endfacet
facet normal 0 0 1
  outer loop
    vertex -133.85828 -155.95537954039 67.1
    vertex -135.906728381169 -145.657134096156 67.1
    vertex -137.876456039833 -146.254644449022 67.1
  endloop
endfacet
facet normal 0 0 1
  outer loop
    vertex -133.85828 -155.95537954039 67.1
    vertex -137.876456039833 -146.254644449022 67.1
    vertex -139.691767446706 -147.224948611213 67.1
  endloop
endfacet
facet normal 0 0 1
  outer loop
    vertex -133.85828 -155.95537954039 67.1
    vertex -139.691767446706 -147.224948611213 67.1
    vertex -141.282901202459 -148.530758337931 67.1
  endloop
endfacet
facet normal 0 0 1
  outer loop
    vertex -133.85828 -155.95537954039 67.1
    vertex -141.282901202459 -148.530758337931 67.1
    vertex -142.588710929177 -150.121892093684 67.1
  endloop
endfacet
facet normal 0 0 1
  outer loop
    vertex -133.85828 -155.95537954039 67.1
    vertex -142.588710929177 -150.121892093684 67.1
    vertex -143.559015091369 -151.937203500557 67.1
  endloop
endfacet
facet normal 0 0 1
  outer loop
    vertex -133.85828 -155.95537954039 67.1
    vertex -143.559015091369 -151.937203500557 67.1
    vertex -144.156525444234 -153.906931159221 67.1
  endloop
endfacet
facet normal 0 0 1
  outer loop
    vertex -133.85828 -155.95537954039 67.1
    vertex -144.156525444234 -153.906931159221 67.1
    vertex -144.35828 -155.95537954039 67.1
  endloop
endfacet
facet normal 0 0 1
  outer loop
    vertex -133.85828 -155.95537954039 67.1
    vertex -144.35828 -155.95537954039 67.1
    vertex -144.156525444234 -158.003827921559 67.1
  endloop
endfacet
facet normal 0 0 1
  outer loop
    vertex -133.85828 -155.95537954039 67.1
    vertex -144.156525444234 -158.003827921559 67.1
    vertex -143.559015091369 -159.973555580224 67.1
  endloop
endfacet
facet normal 0 0 1
  outer loop
    vertex -133.85828 -155.95537954039 67.1
    vertex -143.559015091369 -159.973555580224 67.1
    vertex -142.588710929177 -161.788866987096 67.1
  endloop
endfacet
facet normal 0 0 1
  outer loop
    vertex -133.85828 -155.95537954039 67.1
    vertex -142.588710929177 -161.788866987096 67.1
    vertex -141.282901202459 -163.380000742849 67.1
  endloop
endfacet
facet normal 0 0 1
  outer loop
    vertex -133.85828 -155.95537954039 67.1
    vertex -141.282901202459 -163.380000742849 67.1
    vertex -139.691767446706 -164.685810469567 67.1
  endloop
endfacet
facet normal 0 0 1
  outer loop
    vertex -133.85828 -155.95537954039 67.1
    vertex -139.691767446706 -164.685810469567 67.1
    vertex -137.876456039833 -165.656114631759 67.1
  endloop
endfacet
facet normal 0 0 1
  outer loop
    vertex -133.85828 -155.95537954039 67.1
    vertex -137.876456039833 -165.656114631759 67.1
    vertex -135.906728381169 -166.253624984624 67.1
  endloop
endfacet
facet normal 0 0 1
  outer loop
    vertex -133.85828 -155.95537954039 67.1
    vertex -135.906728381169 -166.253624984624 67.1
    vertex -133.85828 -166.45537954039 67.1
  endloop
endfacet
facet normal 0 0 1
  outer loop
    vertex -133.85828 -155.95537954039 67.1
    vertex -133.85828 -166.45537954039 67.1
    vertex -131.809831618831 -166.253624984624 67.1
  endloop
endfacet
facet normal 0 0 1
  outer loop
    vertex -133.85828 -155.95537954039 67.1
    vertex -131.809831618831 -166.253624984624 67.1
    vertex -129.840103960167 -165.656114631759 67.1
  endloop
endfacet
facet normal 0 0 1
  outer loop
    vertex -133.85828 -155.95537954039 67.1
    vertex -129.840103960167 -165.656114631759 67.1
    vertex -128.024792553294 -164.685810469567 67.1
  endloop
endfacet
facet normal 0 0 1
  outer loop
    vertex -133.85828 -155.95537954039 67.1
    vertex -128.024792553294 -164.685810469567 67.1
    vertex -126.433658797541 -163.380000742849 67.1
  endloop
endfacet
facet normal 0 0 1
  outer loop
    vertex -133.85828 -155.95537954039 67.1
    vertex -126.433658797541 -163.380000742849 67.1
    vertex -125.127849070823 -161.788866987096 67.1
  endloop
endfacet
facet normal 0 0 1
  outer loop
    vertex -133.85828 -155.95537954039 67.1
    vertex -125.127849070823 -161.788866987096 67.1
    vertex -124.157544908631 -159.973555580224 67.1
  endloop
endfacet
facet normal 0 0 1
  outer loop
    vertex -133.85828 -155.95537954039 67.1
    vertex -124.157544908631 -159.973555580224 67.1
    vertex -123.560034555766 -158.003827921559 67.1
  endloop
endfacet
facet normal 0 0 1
  outer loop
    vertex -133.85828 -155.95537954039 67.1
    vertex -123.560034555766 -158.003827921559 67.1
    vertex -123.35828 -155.95537954039 67.1
  endloop
endfacet
facet normal .995184726672199 9.80171403295386E-02 0
  outer loop
    vertex -123.35828 -155.95537954039 67
    vertex -123.560034555766 -153.906931159221 67.1
    vertex -123.35828 -155.95537954039 67.1
  endloop
endfacet
facet normal .95694033573226 .290284677254294 0
  outer loop
    vertex -123.560034555766 -153.906931159221 67
    vertex -124.157544908631 -151.937203500557 67.1
    vertex -123.560034555766 -153.906931159221 67.1
  endloop
endfacet
facet normal .881921264348375 .471396736825961 0
  outer loop
    vertex -124.157544908631 -151.937203500557 67
    vertex -125.127849070823 -150.121892093684 67.1
    vertex -124.157544908631 -151.937203500557 67.1
  endloop
endfacet
facet normal .773010453362751 .634393284163629 0
  outer loop
    vertex -125.127849070823 -150.121892093684 67
    vertex -126.433658797541 -148.530758337931 67.1
    vertex -125.127849070823 -150.121892093684 67.1
  endloop
endfacet
facet normal .634393284163636 .773010453362745 0
  outer loop
    vertex -126.433658797541 -148.530758337931 67
    vertex -128.024792553294 -147.224948611213 67.1
    vertex -126.433658797541 -148.530758337931 67.1
  endloop
endfacet
facet normal .471396736825568 .881921264348585 0
  outer loop
    vertex -128.024792553294 -147.224948611213 67
    vertex -129.840103960167 -146.254644449022 67.1
    vertex -128.024792553294 -147.224948611213 67.1
  endloop
endfacet
facet normal .290284677254743 .956940335732124 0
  outer loop
    vertex -129.840103960167 -146.254644449022 67
    vertex -131.809831618831 -145.657134096156 67.1
    vertex -129.840103960167 -146.254644449022 67.1
  endloop
endfacet
facet normal 9.80171403295386E-02 .995184726672199 0
  outer loop
    vertex -131.809831618831 -145.657134096156 67
    vertex -133.85828 -145.45537954039 67.1
    vertex -131.809831618831 -145.657134096156 67.1
  endloop
endfacet
facet normal -.09801714032954 .995184726672199 0
  outer loop
    vertex -133.85828 -145.45537954039 67
    vertex -135.906728381169 -145.657134096156 67.1
    vertex -133.85828 -145.45537954039 67.1
  endloop
endfacet
facet normal -.290284677254743 .956940335732124 0
  outer loop
    vertex -135.906728381169 -145.657134096156 67
    vertex -137.876456039833 -146.254644449022 67.1
    vertex -135.906728381169 -145.657134096156 67.1
  endloop
endfacet
facet normal -.471396736825568 .881921264348585 0
  outer loop
    vertex -137.876456039833 -146.254644449022 67
    vertex -139.691767446706 -147.224948611213 67.1
    vertex -137.876456039833 -146.254644449022 67.1
  endloop
endfacet
facet normal -.634393284163636 .773010453362745 0
  outer loop
    vertex -139.691767446706 -147.224948611213 67
    vertex -141.282901202459 -148.530758337931 67.1
    vertex -139.691767446706 -147.224948611213 67.1
  endloop
endfacet
facet normal -.773010453362744 .634393284163637 0
  outer loop
    vertex -141.282901202459 -148.530758337931 67
    vertex -142.588710929177 -150.121892093684 67.1
    vertex -141.282901202459 -148.530758337931 67.1
  endloop
endfacet
facet normal -.881921264348381 .47139673682595 0
  outer loop
    vertex -142.588710929177 -150.121892093684 67
    vertex -143.559015091369 -151.937203500557 67.1
    vertex -142.588710929177 -150.121892093684 67.1
  endloop
endfacet
facet normal -.956940335732258 .2902846772543 0
  outer loop
    vertex -143.559015091369 -151.937203500557 67
    vertex -144.156525444234 -153.906931159221 67.1
    vertex -143.559015091369 -151.937203500557 67.1
  endloop
endfacet
facet normal -.995184726672199 9.80171403295386E-02 0
  outer loop
    vertex -144.156525444234 -153.906931159221 67
    vertex -144.35828 -155.95537954039 67.1
    vertex -144.156525444234 -153.906931159221 67.1
  endloop
endfacet
facet normal -.995184726672199 -9.80171403295386E-02 0
  outer loop
    vertex -144.35828 -155.95537954039 67
    vertex -144.156525444234 -158.003827921559 67.1
    vertex -144.35828 -155.95537954039 67.1
  endloop
endfacet
facet normal -.956940335732299 -.290284677254166 0
  outer loop
    vertex -144.156525444234 -158.003827921559 67
    vertex -143.559015091369 -159.973555580224 67.1
    vertex -144.156525444234 -158.003827921559 67.1
  endloop
endfacet
facet normal -.881921264348273 -.471396736826151 0
  outer loop
    vertex -143.559015091369 -159.973555580224 67
    vertex -142.588710929177 -161.788866987096 67.1
    vertex -143.559015091369 -159.973555580224 67.1
  endloop
endfacet
facet normal -.773010453362744 -.634393284163637 0
  outer loop
    vertex -142.588710929177 -161.788866987096 67
    vertex -141.282901202459 -163.380000742849 67.1
    vertex -142.588710929177 -161.788866987096 67.1
  endloop
endfacet
facet normal -.634393284163636 -.773010453362745 0
  outer loop
    vertex -141.282901202459 -163.380000742849 67
    vertex -139.691767446706 -164.685810469567 67.1
    vertex -141.282901202459 -163.380000742849 67.1
  endloop
endfacet
facet normal -.471396736825955 -.881921264348378 0
  outer loop
    vertex -139.691767446706 -164.685810469567 67
    vertex -137.876456039833 -165.656114631759 67.1
    vertex -139.691767446706 -164.685810469567 67.1
  endloop
endfacet
facet normal -.290284677254288 -.956940335732262 0
  outer loop
    vertex -137.876456039833 -165.656114631759 67
    vertex -135.906728381169 -166.253624984624 67.1
    vertex -137.876456039833 -165.656114631759 67.1
  endloop
endfacet
facet normal -.09801714032954 -.995184726672199 0
  outer loop
    vertex -135.906728381169 -166.253624984624 67
    vertex -133.85828 -166.45537954039 67.1
    vertex -135.906728381169 -166.253624984624 67.1
  endloop
endfacet
facet normal 9.80171403295386E-02 -.995184726672199 0
  outer loop
    vertex -133.85828 -166.45537954039 67
    vertex -131.809831618831 -166.253624984624 67.1
    vertex -133.85828 -166.45537954039 67.1
  endloop
endfacet
facet normal .290284677254288 -.956940335732262 0
  outer loop
    vertex -131.809831618831 -166.253624984624 67
    vertex -129.840103960167 -165.656114631759 67.1
    vertex -131.809831618831 -166.253624984624 67.1
  endloop
endfacet
facet normal .471396736825955 -.881921264348378 0
  outer loop
    vertex -129.840103960167 -165.656114631759 67
    vertex -128.024792553294 -164.685810469567 67.1
    vertex -129.840103960167 -165.656114631759 67.1
  endloop
endfacet
facet normal .634393284163636 -.773010453362745 0
  outer loop
    vertex -128.024792553294 -164.685810469567 67
    vertex -126.433658797541 -163.380000742849 67.1
    vertex -128.024792553294 -164.685810469567 67.1
  endloop
endfacet
facet normal .773010453362751 -.634393284163629 0
  outer loop
    vertex -126.433658797541 -163.380000742849 67
    vertex -125.127849070823 -161.788866987096 67.1
    vertex -126.433658797541 -163.380000742849 67.1
  endloop
endfacet
facet normal .881921264348268 -.471396736826162 0
  outer loop
    vertex -125.127849070823 -161.788866987096 67
    vertex -124.157544908631 -159.973555580224 67.1
    vertex -125.127849070823 -161.788866987096 67.1
  endloop
endfacet
facet normal .956940335732301 -.29028467725416 0
  outer loop
    vertex -124.157544908631 -159.973555580224 67
    vertex -123.560034555766 -158.003827921559 67.1
    vertex -124.157544908631 -159.973555580224 67.1
  endloop
endfacet
facet normal .995184726672199 -9.80171403295386E-02 0
  outer loop
    vertex -123.560034555766 -158.003827921559 67
    vertex -123.35828 -155.95537954039 67.1
    vertex -123.560034555766 -158.003827921559 67.1
  endloop
endfacet
facet normal .995184726672199 9.80171403295386E-02 0
  outer loop
    vertex -123.560034555766 -153.906931159221 67
    vertex -123.560034555766 -153.906931159221 67.1
    vertex -123.35828 -155.95537954039 67
  endloop
endfacet
facet normal .95694033573226 .290284677254294 0
  outer loop
    vertex -124.157544908631 -151.937203500557 67
    vertex -124.157544908631 -151.937203500557 67.1
    vertex -123.560034555766 -153.906931159221 67
  endloop
endfacet
facet normal .881921264348375 .471396736825961 0
  outer loop
    vertex -125.127849070823 -150.121892093684 67
    vertex -125.127849070823 -150.121892093684 67.1
    vertex -124.157544908631 -151.937203500557 67
  endloop
endfacet
facet normal .773010453362751 .634393284163629 0
  outer loop
    vertex -126.433658797541 -148.530758337931 67
    vertex -126.433658797541 -148.530758337931 67.1
    vertex -125.127849070823 -150.121892093684 67
  endloop
endfacet
facet normal .634393284163636 .773010453362745 0
  outer loop
    vertex -128.024792553294 -147.224948611213 67
    vertex -128.024792553294 -147.224948611213 67.1
    vertex -126.433658797541 -148.530758337931 67
  endloop
endfacet
facet normal .471396736825568 .881921264348585 0
  outer loop
    vertex -129.840103960167 -146.254644449022 67
    vertex -129.840103960167 -146.254644449022 67.1
    vertex -128.024792553294 -147.224948611213 67
  endloop
endfacet
facet normal .290284677254743 .956940335732124 0
  outer loop
    vertex -131.809831618831 -145.657134096156 67
    vertex -131.809831618831 -145.657134096156 67.1
    vertex -129.840103960167 -146.254644449022 67
  endloop
endfacet
facet normal 9.80171403295386E-02 .995184726672199 0
  outer loop
    vertex -133.85828 -145.45537954039 67
    vertex -133.85828 -145.45537954039 67.1
    vertex -131.809831618831 -145.657134096156 67
  endloop
endfacet
facet normal -.09801714032954 .995184726672199 0
  outer loop
    vertex -135.906728381169 -145.657134096156 67
    vertex -135.906728381169 -145.657134096156 67.1
    vertex -133.85828 -145.45537954039 67
  endloop
endfacet
facet normal -.290284677254743 .956940335732124 0
  outer loop
    vertex -137.876456039833 -146.254644449022 67
    vertex -137.876456039833 -146.254644449022 67.1
    vertex -135.906728381169 -145.657134096156 67
  endloop
endfacet
facet normal -.471396736825568 .881921264348585 0
  outer loop
    vertex -139.691767446706 -147.224948611213 67
    vertex -139.691767446706 -147.224948611213 67.1
    vertex -137.876456039833 -146.254644449022 67
  endloop
endfacet
facet normal -.634393284163636 .773010453362745 0
  outer loop
    vertex -141.282901202459 -148.530758337931 67
    vertex -141.282901202459 -148.530758337931 67.1
    vertex -139.691767446706 -147.224948611213 67
  endloop
endfacet
facet normal -.773010453362744 .634393284163637 0
  outer loop
    vertex -142.588710929177 -150.121892093684 67
    vertex -142.588710929177 -150.121892093684 67.1
    vertex -141.282901202459 -148.530758337931 67
  endloop
endfacet
facet normal -.881921264348381 .47139673682595 0
  outer loop
    vertex -143.559015091369 -151.937203500557 67
    vertex -143.559015091369 -151.937203500557 67.1
    vertex -142.588710929177 -150.121892093684 67
  endloop
endfacet
facet normal -.956940335732258 .2902846772543 0
  outer loop
    vertex -144.156525444234 -153.906931159221 67
    vertex -144.156525444234 -153.906931159221 67.1
    vertex -143.559015091369 -151.937203500557 67
  endloop
endfacet
facet normal -.995184726672199 9.80171403295386E-02 0
  outer loop
    vertex -144.35828 -155.95537954039 67
    vertex -144.35828 -155.95537954039 67.1
    vertex -144.156525444234 -153.906931159221 67
  endloop
endfacet
facet normal -.995184726672199 -9.80171403295386E-02 0
  outer loop
    vertex -144.156525444234 -158.003827921559 67
    vertex -144.156525444234 -158.003827921559 67.1
    vertex -144.35828 -155.95537954039 67
  endloop
endfacet
facet normal -.956940335732299 -.290284677254166 0
  outer loop
    vertex -143.559015091369 -159.973555580224 67
    vertex -143.559015091369 -159.973555580224 67.1
    vertex -144.156525444234 -158.003827921559 67
  endloop
endfacet
facet normal -.881921264348273 -.471396736826151 0
  outer loop
    vertex -142.588710929177 -161.788866987096 67
    vertex -142.588710929177 -161.788866987096 67.1
    vertex -143.559015091369 -159.973555580224 67
  endloop
endfacet
facet normal -.773010453362744 -.634393284163637 0
  outer loop
    vertex -141.282901202459 -163.380000742849 67
    vertex -141.282901202459 -163.380000742849 67.1
    vertex -142.588710929177 -161.788866987096 67
  endloop
endfacet
facet normal -.634393284163636 -.773010453362745 0
  outer loop
    vertex -139.691767446706 -164.685810469567 67
    vertex -139.691767446706 -164.685810469567 67.1
    vertex -141.282901202459 -163.380000742849 67
  endloop
endfacet
facet normal -.471396736825955 -.881921264348378 0
  outer loop
    vertex -137.876456039833 -165.656114631759 67
    vertex -137.876456039833 -165.656114631759 67.1
    vertex -139.691767446706 -164.685810469567 67
  endloop
endfacet
facet normal -.290284677254288 -.956940335732262 0
  outer loop
    vertex -135.906728381169 -166.253624984624 67
    vertex -135.906728381169 -166.253624984624 67.1
    vertex -137.876456039833 -165.656114631759 67
  endloop
endfacet
facet normal -.09801714032954 -.995184726672199 0
  outer loop
    vertex -133.85828 -166.45537954039 67
    vertex -133.85828 -166.45537954039 67.1
    vertex -135.906728381169 -166.253624984624 67
  endloop
endfacet
facet normal 9.80171403295386E-02 -.995184726672199 0
  outer loop
    vertex -131.809831618831 -166.253624984624 67
    vertex -131.809831618831 -166.253624984624 67.1
    vertex -133.85828 -166.45537954039 67
  endloop
endfacet
facet normal .290284677254288 -.956940335732262 0
  outer loop
    vertex -129.840103960167 -165.656114631759 67
    vertex -129.840103960167 -165.656114631759 67.1
    vertex -131.809831618831 -166.253624984624 67
  endloop
endfacet
facet normal .471396736825955 -.881921264348378 0
  outer loop
    vertex -128.024792553294 -164.685810469567 67
    vertex -128.024792553294 -164.685810469567 67.1
    vertex -129.840103960167 -165.656114631759 67
  endloop
endfacet
facet normal .634393284163636 -.773010453362745 0
  outer loop
    vertex -126.433658797541 -163.380000742849 67
    vertex -126.433658797541 -163.380000742849 67.1
    vertex -128.024792553294 -164.685810469567 67
  endloop
endfacet
facet normal .773010453362751 -.634393284163629 0
  outer loop
    vertex -125.127849070823 -161.788866987096 67
    vertex -125.127849070823 -161.788866987096 67.1
    vertex -126.433658797541 -163.380000742849 67
  endloop
endfacet
facet normal .881921264348268 -.471396736826162 0
  outer loop
    vertex -124.157544908631 -159.973555580224 67
    vertex -124.157544908631 -159.973555580224 67.1
    vertex -125.127849070823 -161.788866987096 67
  endloop
endfacet
facet normal .956940335732301 -.29028467725416 0
  outer loop
    vertex -123.560034555766 -158.003827921559 67
    vertex -123.560034555766 -158.003827921559 67.1
    vertex -124.157544908631 -159.973555580224 67
  endloop
endfacet
facet normal .995184726672199 -9.80171403295386E-02 0
  outer loop
    vertex -123.35828 -155.95537954039 67
    vertex -123.35828 -155.95537954039 67.1
    vertex -123.560034555766 -158.003827921559 67
  endloop
endfacet
facet normal 1 0 0
  outer loop
    vertex 210 -190 0
    vertex 210 120 67
    vertex 210 -190 67
  endloop
endfacet
facet normal 1 0 0
  outer loop
    vertex 210 -190 0
    vertex 210 120 0
    vertex 210 120 67
  endloop
endfacet
facet normal -1 0 0
  outer loop
    vertex -210 120 0
    vertex -210 -190 67
    vertex -210 120 67
  endloop
endfacet
facet normal -1 0 0
  outer loop
    vertex -210 120 0
    vertex -210 -190 0
    vertex -210 -190 67
  endloop
endfacet
facet normal 0 -1 0
  outer loop
    vertex -210 -190 0
    vertex 210 -190 67
    vertex -210 -190 67
  endloop
endfacet
facet normal 0 -1 0
  outer loop
    vertex -210 -190 0
    vertex 210 -190 0
    vertex 210 -190 67
  endloop
endfacet
facet normal 0 1 0
  outer loop
    vertex 210 120 0
    vertex -210 120 67
    vertex 210 120 67
  endloop
endfacet
facet normal 0 1 0
  outer loop
    vertex 210 120 0
    vertex -210 120 0
    vertex -210 120 67
  endloop
endfacet
facet normal 0 0 -1
  outer loop
    vertex 210 -190 0
    vertex -210 120 0
    vertex 210 120 0
  endloop
endfacet
facet normal 0 0 -1
  outer loop
    vertex 210 -190 0
    vertex -210 -190 0
    vertex -210 120 0
  endloop
endfacet
facet normal 0 0 1
  outer loop
    vertex 210 -190 67
    vertex 210 120 67
    vertex -210 120 67
  endloop
endfacet
facet normal 0 0 1
  outer loop
    vertex 210 -190 67
    vertex -210 120 67
    vertex -210 -190 67
  endloop
endfacet
facet normal 0 -1 0
  outer loop
    vertex -151.85828 -292.5 10
    vertex -151.85828 -292.5 0
    vertex -115.85828 -292.5 0
  endloop
endfacet
facet normal 0 -1 0
  outer loop
    vertex -151.85828 -292.5 10
    vertex -115.85828 -292.5 0
    vertex -115.85828 -292.5 10
  endloop
endfacet
facet normal 0 1 0
  outer loop
    vertex -115.85828 -190 38.5
    vertex -115.85828 -190 28.5
    vertex -151.85828 -190 28.5
  endloop
endfacet
facet normal 0 1 0
  outer loop
    vertex -115.85828 -190 38.5
    vertex -151.85828 -190 28.5
    vertex -151.85828 -190 38.5
  endloop
endfacet
facet normal -1 0 0
  outer loop
    vertex -151.85828 -190 28.5
    vertex -151.85828 -208.884014043674 28.5
    vertex -151.85828 -213.884014043674 38.5
  endloop
endfacet
facet normal -1 0 0
  outer loop
    vertex -151.85828 -208.884014043674 28.5
    vertex -151.85828 -230.0625 0
    vertex -151.85828 -235.0625 10
  endloop
endfacet
facet normal -1 0 0
  outer loop
    vertex -151.85828 -230.0625 0
    vertex -151.85828 -292.5 0
    vertex -151.85828 -292.5 10
  endloop
endfacet
facet normal -1 0 0
  outer loop
    vertex -151.85828 -190 28.5
    vertex -151.85828 -213.884014043674 38.5
    vertex -151.85828 -190 38.5
  endloop
endfacet
facet normal -1 0 0
  outer loop
    vertex -151.85828 -208.884014043674 28.5
    vertex -151.85828 -235.0625 10
    vertex -151.85828 -213.884014043674 38.5
  endloop
endfacet
facet normal -1 0 0
  outer loop
    vertex -151.85828 -230.0625 0
    vertex -151.85828 -292.5 10
    vertex -151.85828 -235.0625 10
  endloop
endfacet
facet normal 1 0 0
  outer loop
    vertex -115.85828 -190 28.5
    vertex -115.85828 -213.884014043674 38.5
    vertex -115.85828 -208.884014043674 28.5
  endloop
endfacet
facet normal 1 0 0
  outer loop
    vertex -115.85828 -208.884014043674 28.5
    vertex -115.85828 -235.0625 10
    vertex -115.85828 -230.0625 0
  endloop
endfacet
facet normal 1 0 0
  outer loop
    vertex -115.85828 -230.0625 0
    vertex -115.85828 -292.5 10
    vertex -115.85828 -292.5 0
  endloop
endfacet
facet normal 1 0 0
  outer loop
    vertex -115.85828 -190 28.5
    vertex -115.85828 -190 38.5
    vertex -115.85828 -213.884014043674 38.5
  endloop
endfacet
facet normal 1 0 0
  outer loop
    vertex -115.85828 -208.884014043674 28.5
    vertex -115.85828 -213.884014043674 38.5
    vertex -115.85828 -235.0625 10
  endloop
endfacet
facet normal 1 0 0
  outer loop
    vertex -115.85828 -230.0625 0
    vertex -115.85828 -235.0625 10
    vertex -115.85828 -292.5 10
  endloop
endfacet
facet normal 0 0 1
  outer loop
    vertex -151.85828 -190 38.5
    vertex -151.85828 -213.884014043674 38.5
    vertex -115.85828 -213.884014043674 38.5
  endloop
endfacet
facet normal 0 -.802648693229385 .596452072891998
  outer loop
    vertex -151.85828 -213.884014043674 38.5
    vertex -151.85828 -235.0625 10
    vertex -115.85828 -235.0625 10
  endloop
endfacet
facet normal 0 0 1
  outer loop
    vertex -151.85828 -235.0625 10
    vertex -151.85828 -292.5 10
    vertex -115.85828 -292.5 10
  endloop
endfacet
facet normal 0 0 1
  outer loop
    vertex -151.85828 -190 38.5
    vertex -115.85828 -213.884014043674 38.5
    vertex -115.85828 -190 38.5
  endloop
endfacet
facet normal 0 -.802648693229385 .596452072891998
  outer loop
    vertex -151.85828 -213.884014043674 38.5
    vertex -115.85828 -235.0625 10
    vertex -115.85828 -213.884014043674 38.5
  endloop
endfacet
facet normal 0 0 1
  outer loop
    vertex -151.85828 -235.0625 10
    vertex -115.85828 -292.5 10
    vertex -115.85828 -235.0625 10
  endloop
endfacet
facet normal 0 0 -1
  outer loop
    vertex -151.85828 -190 28.5
    vertex -115.85828 -208.884014043674 28.5
    vertex -151.85828 -208.884014043674 28.5
  endloop
endfacet
facet normal 0 .802648693229385 -.596452072891998
  outer loop
    vertex -151.85828 -208.884014043674 28.5
    vertex -115.85828 -230.0625 0
    vertex -151.85828 -230.0625 0
  endloop
endfacet
facet normal 0 0 -1
  outer loop
    vertex -151.85828 -230.0625 0
    vertex -115.85828 -292.5 0
    vertex -151.85828 -292.5 0
  endloop
endfacet
facet normal 0 0 -1
  outer loop
    vertex -151.85828 -190 28.5
    vertex -115.85828 -190 28.5
    vertex -115.85828 -208.884014043674 28.5
  endloop
endfacet
facet normal 0 .802648693229385 -.596452072891998
  outer loop
    vertex -151.85828 -208.884014043674 28.5
    vertex -115.85828 -208.884014043674 28.5
    vertex -115.85828 -230.0625 0
  endloop
endfacet
facet normal 0 0 -1
  outer loop
    vertex -151.85828 -230.0625 0
    vertex -115.85828 -230.0625 0
    vertex -115.85828 -292.5 0
  endloop
endfacet
facet normal 0 -1 0
  outer loop
    vertex -84.92914 -292.5 10
    vertex -84.92914 -292.5 0
    vertex -48.92914 -292.5 0
  endloop
endfacet
facet normal 0 -1 0
  outer loop
    vertex -84.92914 -292.5 10
    vertex -48.92914 -292.5 0
    vertex -48.92914 -292.5 10
  endloop
endfacet
facet normal 0 1 0
  outer loop
    vertex -48.92914 -190 38.5
    vertex -48.92914 -190 28.5
    vertex -84.92914 -190 28.5
  endloop
endfacet
facet normal 0 1 0
  outer loop
    vertex -48.92914 -190 38.5
    vertex -84.92914 -190 28.5
    vertex -84.92914 -190 38.5
  endloop
endfacet
facet normal -1 0 0
  outer loop
    vertex -84.92914 -190 28.5
    vertex -84.92914 -208.884014043674 28.5
    vertex -84.92914 -213.884014043674 38.5
  endloop
endfacet
facet normal -1 -5.19442374107455E-15 7.35038643010413E-15
  outer loop
    vertex -84.92914 -208.884014043674 28.5
    vertex -84.9291400000001 -230.0625 0
    vertex -84.92914 -235.0625 10
  endloop
endfacet
facet normal -1 -1.59320893703966E-15 0
  outer loop
    vertex -84.9291400000001 -230.0625 0
    vertex -84.92914 -292.5 0
    vertex -84.92914 -292.5 10
  endloop
endfacet
facet normal -1 0 0
  outer loop
    vertex -84.92914 -190 28.5
    vertex -84.92914 -213.884014043674 38.5
    vertex -84.92914 -190 38.5
  endloop
endfacet
facet normal -1 0 0
  outer loop
    vertex -84.92914 -208.884014043674 28.5
    vertex -84.92914 -235.0625 10
    vertex -84.92914 -213.884014043674 38.5
  endloop
endfacet
facet normal -1 0 9.9475983006414E-15
  outer loop
    vertex -84.9291400000001 -230.0625 0
    vertex -84.92914 -292.5 10
    vertex -84.92914 -235.0625 10
  endloop
endfacet
facet normal 1 0 0
  outer loop
    vertex -48.92914 -190 28.5
    vertex -48.92914 -213.884014043674 38.5
    vertex -48.92914 -208.884014043674 28.5
  endloop
endfacet
facet normal 1 -5.19442374107455E-15 7.35038643010413E-15
  outer loop
    vertex -48.92914 -208.884014043674 28.5
    vertex -48.92914 -235.0625 10
    vertex -48.9291399999999 -230.0625 0
  endloop
endfacet
facet normal 1 -1.59320893703966E-15 0
  outer loop
    vertex -48.9291399999999 -230.0625 0
    vertex -48.92914 -292.5 10
    vertex -48.92914 -292.5 0
  endloop
endfacet
facet normal 1 0 0
  outer loop
    vertex -48.92914 -190 28.5
    vertex -48.92914 -190 38.5
    vertex -48.92914 -213.884014043674 38.5
  endloop
endfacet
facet normal 1 0 0
  outer loop
    vertex -48.92914 -208.884014043674 28.5
    vertex -48.92914 -213.884014043674 38.5
    vertex -48.92914 -235.0625 10
  endloop
endfacet
facet normal 1 0 9.9475983006414E-15
  outer loop
    vertex -48.9291399999999 -230.0625 0
    vertex -48.92914 -235.0625 10
    vertex -48.92914 -292.5 10
  endloop
endfacet
facet normal 0 0 1
  outer loop
    vertex -84.92914 -190 38.5
    vertex -84.92914 -213.884014043674 38.5
    vertex -48.92914 -213.884014043674 38.5
  endloop
endfacet
facet normal 0 -.802648693229385 .596452072891998
  outer loop
    vertex -84.92914 -213.884014043674 38.5
    vertex -84.92914 -235.0625 10
    vertex -48.92914 -235.0625 10
  endloop
endfacet
facet normal 0 0 1
  outer loop
    vertex -84.92914 -235.0625 10
    vertex -84.92914 -292.5 10
    vertex -48.92914 -292.5 10
  endloop
endfacet
facet normal 0 0 1
  outer loop
    vertex -84.92914 -190 38.5
    vertex -48.92914 -213.884014043674 38.5
    vertex -48.92914 -190 38.5
  endloop
endfacet
facet normal 0 -.802648693229385 .596452072891998
  outer loop
    vertex -84.92914 -213.884014043674 38.5
    vertex -48.92914 -235.0625 10
    vertex -48.92914 -213.884014043674 38.5
  endloop
endfacet
facet normal 0 0 1
  outer loop
    vertex -84.92914 -235.0625 10
    vertex -48.92914 -292.5 10
    vertex -48.92914 -235.0625 10
  endloop
endfacet
facet normal 0 0 -1
  outer loop
    vertex -84.92914 -190 28.5
    vertex -48.92914 -208.884014043674 28.5
    vertex -84.92914 -208.884014043674 28.5
  endloop
endfacet
facet normal 0 .802648693229385 -.596452072891998
  outer loop
    vertex -84.92914 -208.884014043674 28.5
    vertex -48.9291399999999 -230.0625 0
    vertex -84.9291400000001 -230.0625 0
  endloop
endfacet
facet normal 0 0 -1
  outer loop
    vertex -84.9291400000001 -230.0625 0
    vertex -48.92914 -292.5 0
    vertex -84.92914 -292.5 0
  endloop
endfacet
facet normal 0 0 -1
  outer loop
    vertex -84.92914 -190 28.5
    vertex -48.92914 -190 28.5
    vertex -48.92914 -208.884014043674 28.5
  endloop
endfacet
facet normal 0 .802648693229385 -.596452072891998
  outer loop
    vertex -84.92914 -208.884014043674 28.5
    vertex -48.92914 -208.884014043674 28.5
    vertex -48.9291399999999 -230.0625 0
  endloop
endfacet
facet normal 0 0 -1
  outer loop
    vertex -84.9291400000001 -230.0625 0
    vertex -48.9291399999999 -230.0625 0
    vertex -48.92914 -292.5 0
  endloop
endfacet
facet normal 0 -1 0
  outer loop
    vertex -18 -292.5 10
    vertex -18 -292.5 0
    vertex 18 -292.5 0
  endloop
endfacet
facet normal 0 -1 0
  outer loop
    vertex -18 -292.5 10
    vertex 18 -292.5 0
    vertex 18 -292.5 10
  endloop
endfacet
facet normal 0 1 0
  outer loop
    vertex 18 -190 38.5
    vertex 18 -190 28.5
    vertex -18 -190 28.5
  endloop
endfacet
facet normal 0 1 0
  outer loop
    vertex 18 -190 38.5
    vertex -18 -190 28.5
    vertex -18 -190 38.5
  endloop
endfacet
facet normal -1 0 0
  outer loop
    vertex -18 -190 28.5
    vertex -18 -208.884014043674 28.5
    vertex -18 -213.884014043674 38.5
  endloop
endfacet
facet normal -1 -5.19442374107455E-15 7.35038643010413E-15
  outer loop
    vertex -18 -208.884014043674 28.5
    vertex -18.0000000000001 -230.0625 0
    vertex -18 -235.0625 10
  endloop
endfacet
facet normal -1 -1.59320893703966E-15 0
  outer loop
    vertex -18.0000000000001 -230.0625 0
    vertex -18 -292.5 0
    vertex -18 -292.5 10
  endloop
endfacet
facet normal -1 0 0
  outer loop
    vertex -18 -190 28.5
    vertex -18 -213.884014043674 38.5
    vertex -18 -190 38.5
  endloop
endfacet
facet normal -1 0 0
  outer loop
    vertex -18 -208.884014043674 28.5
    vertex -18 -235.0625 10
    vertex -18 -213.884014043674 38.5
  endloop
endfacet
facet normal -1 0 9.9475983006414E-15
  outer loop
    vertex -18.0000000000001 -230.0625 0
    vertex -18 -292.5 10
    vertex -18 -235.0625 10
  endloop
endfacet
facet normal 1 0 0
  outer loop
    vertex 18 -190 28.5
    vertex 18 -213.884014043674 38.5
    vertex 18 -208.884014043674 28.5
  endloop
endfacet
facet normal 1 -5.19442374107455E-15 7.35038643010413E-15
  outer loop
    vertex 18 -208.884014043674 28.5
    vertex 18 -235.0625 10
    vertex 18.0000000000001 -230.0625 0
  endloop
endfacet
facet normal 1 -1.59320893703966E-15 0
  outer loop
    vertex 18.0000000000001 -230.0625 0
    vertex 18 -292.5 10
    vertex 18 -292.5 0
  endloop
endfacet
facet normal 1 0 0
  outer loop
    vertex 18 -190 28.5
    vertex 18 -190 38.5
    vertex 18 -213.884014043674 38.5
  endloop
endfacet
facet normal 1 0 0
  outer loop
    vertex 18 -208.884014043674 28.5
    vertex 18 -213.884014043674 38.5
    vertex 18 -235.0625 10
  endloop
endfacet
facet normal 1 0 9.9475983006414E-15
  outer loop
    vertex 18.0000000000001 -230.0625 0
    vertex 18 -235.0625 10
    vertex 18 -292.5 10
  endloop
endfacet
facet normal 0 0 1
  outer loop
    vertex -18 -190 38.5
    vertex -18 -213.884014043674 38.5
    vertex 18 -213.884014043674 38.5
  endloop
endfacet
facet normal 0 -.802648693229385 .596452072891998
  outer loop
    vertex -18 -213.884014043674 38.5
    vertex -18 -235.0625 10
    vertex 18 -235.0625 10
  endloop
endfacet
facet normal 0 0 1
  outer loop
    vertex -18 -235.0625 10
    vertex -18 -292.5 10
    vertex 18 -292.5 10
  endloop
endfacet
facet normal 0 0 1
  outer loop
    vertex -18 -190 38.5
    vertex 18 -213.884014043674 38.5
    vertex 18 -190 38.5
  endloop
endfacet
facet normal 0 -.802648693229385 .596452072891998
  outer loop
    vertex -18 -213.884014043674 38.5
    vertex 18 -235.0625 10
    vertex 18 -213.884014043674 38.5
  endloop
endfacet
facet normal 0 0 1
  outer loop
    vertex -18 -235.0625 10
    vertex 18 -292.5 10
    vertex 18 -235.0625 10
  endloop
endfacet
facet normal 0 0 -1
  outer loop
    vertex -18 -190 28.5
    vertex 18 -208.884014043674 28.5
    vertex -18 -208.884014043674 28.5
  endloop
endfacet
facet normal 0 .802648693229385 -.596452072891998
  outer loop
    vertex -18 -208.884014043674 28.5
    vertex 18.0000000000001 -230.0625 0
    vertex -18.0000000000001 -230.0625 0
  endloop
endfacet
facet normal 0 0 -1
  outer loop
    vertex -18.0000000000001 -230.0625 0
    vertex 18 -292.5 0
    vertex -18 -292.5 0
  endloop
endfacet
facet normal 0 0 -1
  outer loop
    vertex -18 -190 28.5
    vertex 18 -190 28.5
    vertex 18 -208.884014043674 28.5
  endloop
endfacet
facet normal 0 .802648693229385 -.596452072891998
  outer loop
    vertex -18 -208.884014043674 28.5
    vertex 18 -208.884014043674 28.5
    vertex 18.0000000000001 -230.0625 0
  endloop
endfacet
facet normal 0 0 -1
  outer loop
    vertex -18.0000000000001 -230.0625 0
    vertex 18.0000000000001 -230.0625 0
    vertex 18 -292.5 0
  endloop
endfacet
facet normal 0 -1 0
  outer loop
    vertex 48.92914 -292.5 10
    vertex 48.92914 -292.5 0
    vertex 84.92914 -292.5 0
  endloop
endfacet
facet normal 0 -1 0
  outer loop
    vertex 48.92914 -292.5 10
    vertex 84.92914 -292.5 0
    vertex 84.92914 -292.5 10
  endloop
endfacet
facet normal 0 1 0
  outer loop
    vertex 84.92914 -190 38.5
    vertex 84.92914 -190 28.5
    vertex 48.92914 -190 28.5
  endloop
endfacet
facet normal 0 1 0
  outer loop
    vertex 84.92914 -190 38.5
    vertex 48.92914 -190 28.5
    vertex 48.92914 -190 38.5
  endloop
endfacet
facet normal -1 0 1.06581410364015E-14
  outer loop
    vertex 48.92914 -190 28.5
    vertex 48.92914 -208.884014043674 28.5
    vertex 48.9291400000001 -213.884014043674 38.5
  endloop
endfacet
facet normal -1 -5.19442374107455E-15 7.35038643010413E-15
  outer loop
    vertex 48.92914 -208.884014043674 28.5
    vertex 48.9291399999999 -230.0625 0
    vertex 48.92914 -235.0625 10
  endloop
endfacet
facet normal -1 -1.59320893703966E-15 0
  outer loop
    vertex 48.9291399999999 -230.0625 0
    vertex 48.92914 -292.5 0
    vertex 48.92914 -292.5 10
  endloop
endfacet
facet normal -1 -4.46245803444604E-15 0
  outer loop
    vertex 48.92914 -190 28.5
    vertex 48.9291400000001 -213.884014043674 38.5
    vertex 48.92914 -190 38.5
  endloop
endfacet
facet normal -1 -5.56545400829416E-15 7.87541403225442E-15
  outer loop
    vertex 48.92914 -208.884014043674 28.5
    vertex 48.92914 -235.0625 10
    vertex 48.9291400000001 -213.884014043674 38.5
  endloop
endfacet
facet normal -1 0 9.9475983006414E-15
  outer loop
    vertex 48.9291399999999 -230.0625 0
    vertex 48.92914 -292.5 10
    vertex 48.92914 -235.0625 10
  endloop
endfacet
facet normal 1 0 0
  outer loop
    vertex 84.92914 -190 28.5
    vertex 84.92914 -213.884014043674 38.5
    vertex 84.92914 -208.884014043674 28.5
  endloop
endfacet
facet normal 1 -5.19442374107455E-15 7.35038643010413E-15
  outer loop
    vertex 84.92914 -208.884014043674 28.5
    vertex 84.92914 -235.0625 10
    vertex 84.9291400000001 -230.0625 0
  endloop
endfacet
facet normal 1 -1.59320893703966E-15 0
  outer loop
    vertex 84.9291400000001 -230.0625 0
    vertex 84.92914 -292.5 10
    vertex 84.92914 -292.5 0
  endloop
endfacet
facet normal 1 0 0
  outer loop
    vertex 84.92914 -190 28.5
    vertex 84.92914 -190 38.5
    vertex 84.92914 -213.884014043674 38.5
  endloop
endfacet
facet normal 1 0 0
  outer loop
    vertex 84.92914 -208.884014043674 28.5
    vertex 84.92914 -213.884014043674 38.5
    vertex 84.92914 -235.0625 10
  endloop
endfacet
facet normal 1 0 9.9475983006414E-15
  outer loop
    vertex 84.9291400000001 -230.0625 0
    vertex 84.92914 -235.0625 10
    vertex 84.92914 -292.5 10
  endloop
endfacet
facet normal 0 0 1
  outer loop
    vertex 48.92914 -190 38.5
    vertex 48.9291400000001 -213.884014043674 38.5
    vertex 84.92914 -213.884014043674 38.5
  endloop
endfacet
facet normal 0 -.802648693229385 .596452072891998
  outer loop
    vertex 48.9291400000001 -213.884014043674 38.5
    vertex 48.92914 -235.0625 10
    vertex 84.92914 -235.0625 10
  endloop
endfacet
facet normal 0 0 1
  outer loop
    vertex 48.92914 -235.0625 10
    vertex 48.92914 -292.5 10
    vertex 84.92914 -292.5 10
  endloop
endfacet
facet normal 0 0 1
  outer loop
    vertex 48.92914 -190 38.5
    vertex 84.92914 -213.884014043674 38.5
    vertex 84.92914 -190 38.5
  endloop
endfacet
facet normal 0 -.802648693229385 .596452072891998
  outer loop
    vertex 48.9291400000001 -213.884014043674 38.5
    vertex 84.92914 -235.0625 10
    vertex 84.92914 -213.884014043674 38.5
  endloop
endfacet
facet normal 0 0 1
  outer loop
    vertex 48.92914 -235.0625 10
    vertex 84.92914 -292.5 10
    vertex 84.92914 -235.0625 10
  endloop
endfacet
facet normal 0 0 -1
  outer loop
    vertex 48.92914 -190 28.5
    vertex 84.92914 -208.884014043674 28.5
    vertex 48.92914 -208.884014043674 28.5
  endloop
endfacet
facet normal 0 .802648693229385 -.596452072891998
  outer loop
    vertex 48.92914 -208.884014043674 28.5
    vertex 84.9291400000001 -230.0625 0
    vertex 48.9291399999999 -230.0625 0
  endloop
endfacet
facet normal 0 0 -1
  outer loop
    vertex 48.9291399999999 -230.0625 0
    vertex 84.92914 -292.5 0
    vertex 48.92914 -292.5 0
  endloop
endfacet
facet normal 0 0 -1
  outer loop
    vertex 48.92914 -190 28.5
    vertex 84.92914 -190 28.5
    vertex 84.92914 -208.884014043674 28.5
  endloop
endfacet
facet normal 0 .802648693229385 -.596452072891998
  outer loop
    vertex 48.92914 -208.884014043674 28.5
    vertex 84.92914 -208.884014043674 28.5
    vertex 84.9291400000001 -230.0625 0
  endloop
endfacet
facet normal 0 0 -1
  outer loop
    vertex 48.9291399999999 -230.0625 0
    vertex 84.9291400000001 -230.0625 0
    vertex 84.92914 -292.5 0
  endloop
endfacet
facet normal 0 -1 0
  outer loop
    vertex 115.85828 -292.5 10
    vertex 115.85828 -292.5 0
    vertex 151.85828 -292.5 0
  endloop
endfacet
facet normal 0 -1 0
  outer loop
    vertex 115.85828 -292.5 10
    vertex 151.85828 -292.5 0
    vertex 151.85828 -292.5 10
  endloop
endfacet
facet normal 0 1 0
  outer loop
    vertex 151.85828 -190 38.5
    vertex 151.85828 -190 28.5
    vertex 115.85828 -190 28.5
  endloop
endfacet
facet normal 0 1 0
  outer loop
    vertex 151.85828 -190 38.5
    vertex 115.85828 -190 28.5
    vertex 115.85828 -190 38.5
  endloop
endfacet
facet normal -1 0 0
  outer loop
    vertex 115.85828 -190 28.5
    vertex 115.85828 -208.884014043674 28.5
    vertex 115.85828 -213.884014043674 38.5
  endloop
endfacet
facet normal -1 0 0
  outer loop
    vertex 115.85828 -208.884014043674 28.5
    vertex 115.85828 -230.0625 0
    vertex 115.85828 -235.0625 10
  endloop
endfacet
facet normal -1 0 0
  outer loop
    vertex 115.85828 -230.0625 0
    vertex 115.85828 -292.5 0
    vertex 115.85828 -292.5 10
  endloop
endfacet
facet normal -1 0 0
  outer loop
    vertex 115.85828 -190 28.5
    vertex 115.85828 -213.884014043674 38.5
    vertex 115.85828 -190 38.5
  endloop
endfacet
facet normal -1 0 0
  outer loop
    vertex 115.85828 -208.884014043674 28.5
    vertex 115.85828 -235.0625 10
    vertex 115.85828 -213.884014043674 38.5
  endloop
endfacet
facet normal -1 0 0
  outer loop
    vertex 115.85828 -230.0625 0
    vertex 115.85828 -292.5 10
    vertex 115.85828 -235.0625 10
  endloop
endfacet
facet normal 1 0 0
  outer loop
    vertex 151.85828 -190 28.5
    vertex 151.85828 -213.884014043674 38.5
    vertex 151.85828 -208.884014043674 28.5
  endloop
endfacet
facet normal 1 0 0
  outer loop
    vertex 151.85828 -208.884014043674 28.5
    vertex 151.85828 -235.0625 10
    vertex 151.85828 -230.0625 0
  endloop
endfacet
facet normal 1 0 0
  outer loop
    vertex 151.85828 -230.0625 0
    vertex 151.85828 -292.5 10
    vertex 151.85828 -292.5 0
  endloop
endfacet
facet normal 1 0 0
  outer loop
    vertex 151.85828 -190 28.5
    vertex 151.85828 -190 38.5
    vertex 151.85828 -213.884014043674 38.5
  endloop
endfacet
facet normal 1 0 0
  outer loop
    vertex 151.85828 -208.884014043674 28.5
    vertex 151.85828 -213.884014043674 38.5
    vertex 151.85828 -235.0625 10
  endloop
endfacet
facet normal 1 0 0
  outer loop
    vertex 151.85828 -230.0625 0
    vertex 151.85828 -235.0625 10
    vertex 151.85828 -292.5 10
  endloop
endfacet
facet normal 0 0 1
  outer loop
    vertex 115.85828 -190 38.5
    vertex 115.85828 -213.884014043674 38.5
    vertex 151.85828 -213.884014043674 38.5
  endloop
endfacet
facet normal 0 -.802648693229385 .596452072891998
  outer loop
    vertex 115.85828 -213.884014043674 38.5
    vertex 115.85828 -235.0625 10
    vertex 151.85828 -235.0625 10
  endloop
endfacet
facet normal 0 0 1
  outer loop
    vertex 115.85828 -235.0625 10
    vertex 115.85828 -292.5 10
    vertex 151.85828 -292.5 10
  endloop
endfacet
facet normal 0 0 1
  outer loop
    vertex 115.85828 -190 38.5
    vertex 151.85828 -213.884014043674 38.5
    vertex 151.85828 -190 38.5
  endloop
endfacet
facet normal 0 -.802648693229385 .596452072891998
  outer loop
    vertex 115.85828 -213.884014043674 38.5
    vertex 151.85828 -235.0625 10
    vertex 151.85828 -213.884014043674 38.5
  endloop
endfacet
facet normal 0 0 1
  outer loop
    vertex 115.85828 -235.0625 10
    vertex 151.85828 -292.5 10
    vertex 151.85828 -235.0625 10
  endloop
endfacet
facet normal 0 0 -1
  outer loop
    vertex 115.85828 -190 28.5
    vertex 151.85828 -208.884014043674 28.5
    vertex 115.85828 -208.884014043674 28.5
  endloop
endfacet
facet normal 0 .802648693229385 -.596452072891998
  outer loop
    vertex 115.85828 -208.884014043674 28.5
    vertex 151.85828 -230.0625 0
    vertex 115.85828 -230.0625 0
  endloop
endfacet
facet normal 0 0 -1
  outer loop
    vertex 115.85828 -230.0625 0
    vertex 151.85828 -292.5 0
    vertex 115.85828 -292.5 0
  endloop
endfacet
facet normal 0 0 -1
  outer loop
    vertex 115.85828 -190 28.5
    vertex 151.85828 -190 28.5
    vertex 151.85828 -208.884014043674 28.5
  endloop
endfacet
facet normal 0 .802648693229385 -.596452072891998
  outer loop
    vertex 115.85828 -208.884014043674 28.5
    vertex 151.85828 -208.884014043674 28.5
    vertex 151.85828 -230.0625 0
  endloop
endfacet
facet normal 0 0 -1
  outer loop
    vertex 115.85828 -230.0625 0
    vertex 151.85828 -230.0625 0
    vertex 151.85828 -292.5 0
  endloop
endfacet
facet normal 0 0 1
  outer loop
    vertex -160 -189.9 0
    vertex 160 -189.9 0
    vertex 160 90.1 0
  endloop
endfacet
facet normal 0 0 1
  outer loop
    vertex -160 -189.9 0
    vertex 160 90.1 0
    vertex -160 90.1 0
  endloop
endfacet
facet normal 0 0 1
  outer loop
    vertex 60 120.1 48
    vertex 210 155.1 48
    vertex 60 190.1 48
  endloop
endfacet
facet normal 0 0 1
  outer loop
    vertex 60 120.1 48
    vertex 210 120.1 48
    vertex 210 155.1 48
  endloop
endfacet
facet normal 0 0 1
  outer loop
    vertex -60 120.1 48
    vertex -210 155.1 48
    vertex -210 120.1 48
  endloop
endfacet
facet normal 0 0 1
  outer loop
    vertex -60 120.1 48
    vertex -60 190.1 48
    vertex -210 155.1 48
  endloop
endfacet
facet normal 0 0 -1
  outer loop
    vertex -160 -189.9 -2
    vertex 160 90.1 -2
    vertex 160 -189.9 -2
  endloop
endfacet
facet normal 0 0 -1
  outer loop
    vertex -160 -189.9 -2
    vertex -160 90.1 -2
    vertex 160 90.1 -2
  endloop
endfacet
facet normal 0 0 -1
  outer loop
    vertex 60 90.1 -2
    vertex -60 190.1 -2
    vertex 60 190.1 -2
  endloop
endfacet
facet normal 0 0 -1
  outer loop
    vertex -60 90.1 -2
    vertex -60 190.1 -2
    vertex 60 90.1 -2
  endloop
endfacet
facet normal 0 0 -1
  outer loop
    vertex 60 120.1 -2
    vertex 60 190.1 -2
    vertex 210 155.1 -2
  endloop
endfacet
facet normal 0 0 -1
  outer loop
    vertex 60 120.1 -2
    vertex 210 155.1 -2
    vertex 210 120.1 -2
  endloop
endfacet
facet normal 0 0 -1
  outer loop
    vertex -60 120.1 -2
    vertex -210 120.1 -2
    vertex -210 155.1 -2
  endloop
endfacet
facet normal 0 0 -1
  outer loop
    vertex -60 120.1 -2
    vertex -210 155.1 -2
    vertex -60 190.1 -2
  endloop
endfacet
facet normal 0 0 1
  outer loop
    vertex -60 190.1 48
    vertex -60 120.1 48
    vertex 60 190.1 48
  endloop
endfacet
facet normal 0 0 1
  outer loop
    vertex -60 120.1 48
    vertex 60 120.1 48
    vertex 60 190.1 48
  endloop
endfacet
facet normal 0 -1 0
  outer loop
    vertex -60 120.1 48
    vertex -60 120.1 0
    vertex 60 120.1 0
  endloop
endfacet
facet normal 0 -1 0
  outer loop
    vertex -60 120.1 48
    vertex 60 120.1 0
    vertex 60 120.1 48
  endloop
endfacet
facet normal 0 0 1
  outer loop
    vertex -60 120.1 0
    vertex -60 90.1 0
    vertex 60 90.1 0
  endloop
endfacet
facet normal 0 0 1
  outer loop
    vertex 60 90.1 0
    vertex 60 120.1 0
    vertex -60 120.1 0
  endloop
endfacet
facet normal -1 0 0
  outer loop
    vertex -160 90.1 -2
    vertex -160 -189.9 0
    vertex -160 90.1 0
  endloop
endfacet
facet normal -1 0 0
  outer loop
    vertex -160 90.1 -2
    vertex -160 -189.9 -2
    vertex -160 -189.9 0
  endloop
endfacet
facet normal 0 -1 0
  outer loop
    vertex -160 -189.9 0
    vertex -160 -189.9 -2
    vertex 160 -189.9 0
  endloop
endfacet
facet normal 0 -1 0
  outer loop
    vertex -160 -189.9 -2
    vertex 160 -189.9 -2
    vertex 160 -189.9 0
  endloop
endfacet
facet normal 1 0 0
  outer loop
    vertex 160 -189.9 0
    vertex 160 -189.9 -2
    vertex 160 90.1 -2
  endloop
endfacet
facet normal 1 0 0
  outer loop
    vertex 160 -189.9 0
    vertex 160 90.1 -2
    vertex 160 90.1 0
  endloop
endfacet
facet normal 0 1 0
  outer loop
    vertex 160 90.1 0
    vertex 60 90.1 -2
    vertex 60 90.1 0
  endloop
endfacet
facet normal 0 1 0
  outer loop
    vertex 160 90.1 -2
    vertex 60 90.1 -2
    vertex 160 90.1 0
  endloop
endfacet
facet normal 1 0 0
  outer loop
    vertex 60 90.1 0
    vertex 60 120.1 -2
    vertex 60 120.1 0
  endloop
endfacet
facet normal 1 0 0
  outer loop
    vertex 60 90.1 0
    vertex 60 90.1 -2
    vertex 60 120.1 -2
  endloop
endfacet
facet normal 0 -1 0
  outer loop
    vertex 60 120.1 48
    vertex 210 120.1 -2
    vertex 210 120.1 48
  endloop
endfacet
facet normal 0 -1 0
  outer loop
    vertex 60 120.1 48
    vertex 60 120.1 -2
    vertex 210 120.1 -2
  endloop
endfacet
facet normal 1 0 0
  outer loop
    vertex 210 120.1 48
    vertex 210 155.1 -2
    vertex 210 155.1 48
  endloop
endfacet
facet normal 1 0 0
  outer loop
    vertex 210 120.1 48
    vertex 210 120.1 -2
    vertex 210 155.1 -2
  endloop
endfacet
facet normal .227229615606418 .973841209741793 0
  outer loop
    vertex 210 155.1 48
    vertex 60 190.1 -2
    vertex 60 190.1 48
  endloop
endfacet
facet normal .227229615606418 .973841209741793 0
  outer loop
    vertex 210 155.1 48
    vertex 210 155.1 -2
    vertex 60 190.1 -2
  endloop
endfacet
facet normal 0 1 0
  outer loop
    vertex 60 190.1 48
    vertex -60 190.1 -2
    vertex -60 190.1 48
  endloop
endfacet
facet normal 0 1 0
  outer loop
    vertex 60 190.1 48
    vertex 60 190.1 -2
    vertex -60 190.1 -2
  endloop
endfacet
facet normal -.227229615606418 .973841209741793 0
  outer loop
    vertex -60 190.1 48
    vertex -210 155.1 -2
    vertex -210 155.1 48
  endloop
endfacet
facet normal -.227229615606418 .973841209741793 0
  outer loop
    vertex -60 190.1 48
    vertex -60 190.1 -2
    vertex -210 155.1 -2
  endloop
endfacet
facet normal -1 0 0
  outer loop
    vertex -210 155.1 48
    vertex -210 120.1 -2
    vertex -210 120.1 48
  endloop
endfacet
facet normal -1 0 0
  outer loop
    vertex -210 155.1 48
    vertex -210 155.1 -2
    vertex -210 120.1 -2
  endloop
endfacet
facet normal 0 -1 0
  outer loop
    vertex -210 120.1 48
    vertex -60 120.1 -2
    vertex -60 120.1 48
  endloop
endfacet
facet normal 0 -1 0
  outer loop
    vertex -210 120.1 48
    vertex -210 120.1 -2
    vertex -60 120.1 -2
  endloop
endfacet
facet normal -1 0 0
  outer loop
    vertex -60 120.1 0
    vertex -60 90.1 -2
    vertex -60 90.1 0
  endloop
endfacet
facet normal -1 0 0
  outer loop
    vertex -60 120.1 0
    vertex -60 120.1 -2
    vertex -60 90.1 -2
  endloop
endfacet
facet normal 0 1 0
  outer loop
    vertex -60 90.1 0
    vertex -60 90.1 -2
    vertex -160 90.1 -2
  endloop
endfacet
facet normal 0 1 0
  outer loop
    vertex -60 90.1 0
    vertex -160 90.1 -2
    vertex -160 90.1 0
  endloop
endfacet
endsolid KTT5_6P22X6P86-M
