solid CHEMI-E55-L
facet normal 0 0 1
  outer loop
    vertex 0 0 207
    vertex -99.275 0 207
    vertex -97.3674587120307 -19.3675917181511 207
  endloop
endfacet
facet normal 0 0 1
  outer loop
    vertex 0 0 207
    vertex -97.3674587120307 -19.3675917181511 207
    vertex -91.718140590058 -37.9908977480443 207
  endloop
endfacet
facet normal 0 0 1
  outer loop
    vertex 0 0 207
    vertex -91.718140590058 -37.9908977480443 207
    vertex -82.5441457613352 -55.154234883021 207
  endloop
endfacet
facet normal 0 0 1
  outer loop
    vertex 0 0 207
    vertex -82.5441457613352 -55.154234883021 207
    vertex -70.1980257022945 -70.1980257022945 207
  endloop
endfacet
facet normal 0 0 1
  outer loop
    vertex 0 0 207
    vertex -70.1980257022945 -70.1980257022945 207
    vertex -55.154234883021 -82.5441457613352 207
  endloop
endfacet
facet normal 0 0 1
  outer loop
    vertex 0 0 207
    vertex -55.154234883021 -82.5441457613352 207
    vertex -37.9908977480443 -91.718140590058 207
  endloop
endfacet
facet normal 0 0 1
  outer loop
    vertex 0 0 207
    vertex -37.9908977480443 -91.718140590058 207
    vertex -19.3675917181511 -97.3674587120307 207
  endloop
endfacet
facet normal 0 0 1
  outer loop
    vertex 0 0 207
    vertex -19.3675917181511 -97.3674587120307 207
    vertex -6.07884054926767E-15 -99.275 207
  endloop
endfacet
facet normal 0 0 1
  outer loop
    vertex 0 0 207
    vertex -6.07884054926767E-15 -99.275 207
    vertex 19.3675917181511 -97.3674587120307 207
  endloop
endfacet
facet normal 0 0 1
  outer loop
    vertex 0 0 207
    vertex 19.3675917181511 -97.3674587120307 207
    vertex 37.9908977480443 -91.718140590058 207
  endloop
endfacet
facet normal 0 0 1
  outer loop
    vertex 0 0 207
    vertex 37.9908977480443 -91.718140590058 207
    vertex 55.154234883021 -82.5441457613352 207
  endloop
endfacet
facet normal 0 0 1
  outer loop
    vertex 0 0 207
    vertex 55.154234883021 -82.5441457613352 207
    vertex 70.1980257022945 -70.1980257022945 207
  endloop
endfacet
facet normal 0 0 1
  outer loop
    vertex 0 0 207
    vertex 70.1980257022945 -70.1980257022945 207
    vertex 82.5441457613352 -55.154234883021 207
  endloop
endfacet
facet normal 0 0 1
  outer loop
    vertex 0 0 207
    vertex 82.5441457613352 -55.154234883021 207
    vertex 91.718140590058 -37.9908977480443 207
  endloop
endfacet
facet normal 0 0 1
  outer loop
    vertex 0 0 207
    vertex 91.718140590058 -37.9908977480443 207
    vertex 97.3674587120307 -19.3675917181511 207
  endloop
endfacet
facet normal 0 0 1
  outer loop
    vertex 0 0 207
    vertex 97.3674587120307 -19.3675917181511 207
    vertex 99.275 0 207
  endloop
endfacet
facet normal 0 0 1
  outer loop
    vertex 0 0 207
    vertex 99.275 0 207
    vertex 97.3674587120307 19.3675917181511 207
  endloop
endfacet
facet normal 0 0 1
  outer loop
    vertex 0 0 207
    vertex 97.3674587120307 19.3675917181511 207
    vertex 91.718140590058 37.9908977480443 207
  endloop
endfacet
facet normal 0 0 1
  outer loop
    vertex 0 0 207
    vertex 91.718140590058 37.9908977480443 207
    vertex 82.5441457613352 55.154234883021 207
  endloop
endfacet
facet normal 0 0 1
  outer loop
    vertex 0 0 207
    vertex 82.5441457613352 55.154234883021 207
    vertex 70.1980257022945 70.1980257022945 207
  endloop
endfacet
facet normal 0 0 1
  outer loop
    vertex 0 0 207
    vertex 70.1980257022945 70.1980257022945 207
    vertex 55.154234883021 82.5441457613352 207
  endloop
endfacet
facet normal 0 0 1
  outer loop
    vertex 0 0 207
    vertex 55.154234883021 82.5441457613352 207
    vertex 37.9908977480443 91.718140590058 207
  endloop
endfacet
facet normal 0 0 1
  outer loop
    vertex 0 0 207
    vertex 37.9908977480443 91.718140590058 207
    vertex 19.3675917181511 97.3674587120307 207
  endloop
endfacet
facet normal 0 0 1
  outer loop
    vertex 0 0 207
    vertex 19.3675917181511 97.3674587120307 207
    vertex 6.07884054926767E-15 99.275 207
  endloop
endfacet
facet normal 0 0 1
  outer loop
    vertex 0 0 207
    vertex 6.07884054926767E-15 99.275 207
    vertex -19.3675917181511 97.3674587120307 207
  endloop
endfacet
facet normal 0 0 1
  outer loop
    vertex 0 0 207
    vertex -19.3675917181511 97.3674587120307 207
    vertex -37.9908977480443 91.718140590058 207
  endloop
endfacet
facet normal 0 0 1
  outer loop
    vertex 0 0 207
    vertex -37.9908977480443 91.718140590058 207
    vertex -55.154234883021 82.5441457613352 207
  endloop
endfacet
facet normal 0 0 1
  outer loop
    vertex 0 0 207
    vertex -55.154234883021 82.5441457613352 207
    vertex -70.1980257022945 70.1980257022945 207
  endloop
endfacet
facet normal 0 0 1
  outer loop
    vertex 0 0 207
    vertex -70.1980257022945 70.1980257022945 207
    vertex -82.5441457613352 55.154234883021 207
  endloop
endfacet
facet normal 0 0 1
  outer loop
    vertex 0 0 207
    vertex -82.5441457613352 55.154234883021 207
    vertex -91.718140590058 37.9908977480443 207
  endloop
endfacet
facet normal 0 0 1
  outer loop
    vertex 0 0 207
    vertex -91.718140590058 37.9908977480443 207
    vertex -97.3674587120307 19.3675917181511 207
  endloop
endfacet
facet normal 0 0 1
  outer loop
    vertex 0 0 207
    vertex -97.3674587120307 19.3675917181511 207
    vertex -99.275 0 207
  endloop
endfacet
facet normal -.995184726672197 -9.80171403295614E-02 0
  outer loop
    vertex -99.275 0 207
    vertex -97.3674587120307 -19.3675917181511 22.51
    vertex -97.3674587120307 -19.3675917181511 207
  endloop
endfacet
facet normal -.995184726672197 -9.80171403295614E-02 0
  outer loop
    vertex -99.275 0 207
    vertex -99.275 0 22.51
    vertex -97.3674587120307 -19.3675917181511 22.51
  endloop
endfacet
facet normal -.956940335732209 -.290284677254461 0
  outer loop
    vertex -97.3674587120307 -19.3675917181511 207
    vertex -91.718140590058 -37.9908977480443 22.51
    vertex -91.718140590058 -37.9908977480443 207
  endloop
endfacet
facet normal -.956940335732209 -.290284677254461 0
  outer loop
    vertex -97.3674587120307 -19.3675917181511 207
    vertex -97.3674587120307 -19.3675917181511 22.51
    vertex -91.718140590058 -37.9908977480443 22.51
  endloop
endfacet
facet normal -.881921264348355 -.471396736825998 0
  outer loop
    vertex -91.718140590058 -37.9908977480443 207
    vertex -82.5441457613352 -55.154234883021 43
    vertex -82.5441457613352 -55.154234883021 207
  endloop
endfacet
facet normal -.881921264348355 -.471396736825998 0
  outer loop
    vertex -91.718140590058 -37.9908977480443 207
    vertex -91.718140590058 -37.9908977480443 43
    vertex -82.5441457613352 -55.154234883021 43
  endloop
endfacet
facet normal -.773010453362737 -.634393284163646 0
  outer loop
    vertex -82.5441457613352 -55.154234883021 207
    vertex -70.1980257022945 -70.1980257022945 43
    vertex -70.1980257022945 -70.1980257022945 207
  endloop
endfacet
facet normal -.773010453362737 -.634393284163646 0
  outer loop
    vertex -82.5441457613352 -55.154234883021 207
    vertex -82.5441457613352 -55.154234883021 43
    vertex -70.1980257022945 -70.1980257022945 43
  endloop
endfacet
facet normal -.634393284163646 -.773010453362737 0
  outer loop
    vertex -70.1980257022945 -70.1980257022945 207
    vertex -55.154234883021 -82.5441457613352 43
    vertex -55.154234883021 -82.5441457613352 207
  endloop
endfacet
facet normal -.634393284163646 -.773010453362737 0
  outer loop
    vertex -70.1980257022945 -70.1980257022945 207
    vertex -70.1980257022945 -70.1980257022945 43
    vertex -55.154234883021 -82.5441457613352 43
  endloop
endfacet
facet normal -.471396736825998 -.881921264348355 0
  outer loop
    vertex -55.154234883021 -82.5441457613352 207
    vertex -37.9908977480443 -91.718140590058 43
    vertex -37.9908977480443 -91.718140590058 207
  endloop
endfacet
facet normal -.471396736825998 -.881921264348355 0
  outer loop
    vertex -55.154234883021 -82.5441457613352 207
    vertex -55.154234883021 -82.5441457613352 43
    vertex -37.9908977480443 -91.718140590058 43
  endloop
endfacet
facet normal -.290284677254461 -.956940335732209 0
  outer loop
    vertex -37.9908977480443 -91.718140590058 207
    vertex -19.3675917181511 -97.3674587120307 22.51
    vertex -19.3675917181511 -97.3674587120307 207
  endloop
endfacet
facet normal -.290284677254461 -.956940335732209 0
  outer loop
    vertex -37.9908977480443 -91.718140590058 207
    vertex -37.9908977480443 -91.718140590058 22.51
    vertex -19.3675917181511 -97.3674587120307 22.51
  endloop
endfacet
facet normal -9.80171403295614E-02 -.995184726672197 0
  outer loop
    vertex -19.3675917181511 -97.3674587120307 207
    vertex -6.07884054926767E-15 -99.275 22.51
    vertex -6.07884054926767E-15 -99.275 207
  endloop
endfacet
facet normal -9.80171403295614E-02 -.995184726672197 0
  outer loop
    vertex -19.3675917181511 -97.3674587120307 207
    vertex -19.3675917181511 -97.3674587120307 22.51
    vertex -6.07884054926767E-15 -99.275 22.51
  endloop
endfacet
facet normal 9.80171403295613E-02 -.995184726672197 0
  outer loop
    vertex -6.07884054926767E-15 -99.275 207
    vertex 19.3675917181511 -97.3674587120307 22.51
    vertex 19.3675917181511 -97.3674587120307 207
  endloop
endfacet
facet normal 9.80171403295613E-02 -.995184726672197 0
  outer loop
    vertex -6.07884054926767E-15 -99.275 207
    vertex -6.07884054926767E-15 -99.275 22.51
    vertex 19.3675917181511 -97.3674587120307 22.51
  endloop
endfacet
facet normal .290284677254461 -.956940335732209 0
  outer loop
    vertex 19.3675917181511 -97.3674587120307 207
    vertex 37.9908977480443 -91.718140590058 22.51
    vertex 37.9908977480443 -91.718140590058 207
  endloop
endfacet
facet normal .290284677254461 -.956940335732209 0
  outer loop
    vertex 19.3675917181511 -97.3674587120307 207
    vertex 19.3675917181511 -97.3674587120307 22.51
    vertex 37.9908977480443 -91.718140590058 22.51
  endloop
endfacet
facet normal .471396736825998 -.881921264348355 0
  outer loop
    vertex 37.9908977480443 -91.718140590058 207
    vertex 55.154234883021 -82.5441457613352 43
    vertex 55.154234883021 -82.5441457613352 207
  endloop
endfacet
facet normal .471396736825998 -.881921264348355 0
  outer loop
    vertex 37.9908977480443 -91.718140590058 207
    vertex 37.9908977480443 -91.718140590058 43
    vertex 55.154234883021 -82.5441457613352 43
  endloop
endfacet
facet normal .634393284163646 -.773010453362737 0
  outer loop
    vertex 55.154234883021 -82.5441457613352 207
    vertex 70.1980257022945 -70.1980257022945 43
    vertex 70.1980257022945 -70.1980257022945 207
  endloop
endfacet
facet normal .634393284163646 -.773010453362737 0
  outer loop
    vertex 55.154234883021 -82.5441457613352 207
    vertex 55.154234883021 -82.5441457613352 43
    vertex 70.1980257022945 -70.1980257022945 43
  endloop
endfacet
facet normal .773010453362737 -.634393284163646 0
  outer loop
    vertex 70.1980257022945 -70.1980257022945 207
    vertex 82.5441457613352 -55.154234883021 43
    vertex 82.5441457613352 -55.154234883021 207
  endloop
endfacet
facet normal .773010453362737 -.634393284163646 0
  outer loop
    vertex 70.1980257022945 -70.1980257022945 207
    vertex 70.1980257022945 -70.1980257022945 43
    vertex 82.5441457613352 -55.154234883021 43
  endloop
endfacet
facet normal .881921264348355 -.471396736825998 0
  outer loop
    vertex 82.5441457613352 -55.154234883021 207
    vertex 91.718140590058 -37.9908977480443 43
    vertex 91.718140590058 -37.9908977480443 207
  endloop
endfacet
facet normal .881921264348355 -.471396736825998 0
  outer loop
    vertex 82.5441457613352 -55.154234883021 207
    vertex 82.5441457613352 -55.154234883021 43
    vertex 91.718140590058 -37.9908977480443 43
  endloop
endfacet
facet normal .956940335732209 -.290284677254461 0
  outer loop
    vertex 91.718140590058 -37.9908977480443 207
    vertex 97.3674587120307 -19.3675917181511 22.51
    vertex 97.3674587120307 -19.3675917181511 207
  endloop
endfacet
facet normal .956940335732209 -.290284677254461 0
  outer loop
    vertex 91.718140590058 -37.9908977480443 207
    vertex 91.718140590058 -37.9908977480443 22.51
    vertex 97.3674587120307 -19.3675917181511 22.51
  endloop
endfacet
facet normal .995184726672197 -9.80171403295614E-02 0
  outer loop
    vertex 97.3674587120307 -19.3675917181511 207
    vertex 99.275 0 22.51
    vertex 99.275 0 207
  endloop
endfacet
facet normal .995184726672197 -9.80171403295614E-02 0
  outer loop
    vertex 97.3674587120307 -19.3675917181511 207
    vertex 97.3674587120307 -19.3675917181511 22.51
    vertex 99.275 0 22.51
  endloop
endfacet
facet normal .995184726672197 9.80171403295614E-02 0
  outer loop
    vertex 99.275 0 207
    vertex 97.3674587120307 19.3675917181511 22.51
    vertex 97.3674587120307 19.3675917181511 207
  endloop
endfacet
facet normal .995184726672197 9.80171403295614E-02 0
  outer loop
    vertex 99.275 0 207
    vertex 99.275 0 22.51
    vertex 97.3674587120307 19.3675917181511 22.51
  endloop
endfacet
facet normal .956940335732209 .290284677254461 0
  outer loop
    vertex 97.3674587120307 19.3675917181511 207
    vertex 91.718140590058 37.9908977480443 22.51
    vertex 91.718140590058 37.9908977480443 207
  endloop
endfacet
facet normal .956940335732209 .290284677254461 0
  outer loop
    vertex 97.3674587120307 19.3675917181511 207
    vertex 97.3674587120307 19.3675917181511 22.51
    vertex 91.718140590058 37.9908977480443 22.51
  endloop
endfacet
facet normal .881921264348355 .471396736825998 0
  outer loop
    vertex 91.718140590058 37.9908977480443 207
    vertex 82.5441457613352 55.154234883021 43
    vertex 82.5441457613352 55.154234883021 207
  endloop
endfacet
facet normal .881921264348355 .471396736825998 0
  outer loop
    vertex 91.718140590058 37.9908977480443 207
    vertex 91.718140590058 37.9908977480443 43
    vertex 82.5441457613352 55.154234883021 43
  endloop
endfacet
facet normal .773010453362737 .634393284163646 0
  outer loop
    vertex 82.5441457613352 55.154234883021 207
    vertex 70.1980257022945 70.1980257022945 43
    vertex 70.1980257022945 70.1980257022945 207
  endloop
endfacet
facet normal .773010453362737 .634393284163646 0
  outer loop
    vertex 82.5441457613352 55.154234883021 207
    vertex 82.5441457613352 55.154234883021 43
    vertex 70.1980257022945 70.1980257022945 43
  endloop
endfacet
facet normal .634393284163646 .773010453362737 0
  outer loop
    vertex 70.1980257022945 70.1980257022945 207
    vertex 55.154234883021 82.5441457613352 43
    vertex 55.154234883021 82.5441457613352 207
  endloop
endfacet
facet normal .634393284163646 .773010453362737 0
  outer loop
    vertex 70.1980257022945 70.1980257022945 207
    vertex 70.1980257022945 70.1980257022945 43
    vertex 55.154234883021 82.5441457613352 43
  endloop
endfacet
facet normal .471396736825998 .881921264348355 0
  outer loop
    vertex 55.154234883021 82.5441457613352 207
    vertex 37.9908977480443 91.718140590058 43
    vertex 37.9908977480443 91.718140590058 207
  endloop
endfacet
facet normal .471396736825998 .881921264348355 0
  outer loop
    vertex 55.154234883021 82.5441457613352 207
    vertex 55.154234883021 82.5441457613352 43
    vertex 37.9908977480443 91.718140590058 43
  endloop
endfacet
facet normal .290284677254461 .956940335732209 0
  outer loop
    vertex 37.9908977480443 91.718140590058 207
    vertex 19.3675917181511 97.3674587120307 22.51
    vertex 19.3675917181511 97.3674587120307 207
  endloop
endfacet
facet normal .290284677254461 .956940335732209 0
  outer loop
    vertex 37.9908977480443 91.718140590058 207
    vertex 37.9908977480443 91.718140590058 22.51
    vertex 19.3675917181511 97.3674587120307 22.51
  endloop
endfacet
facet normal 9.80171403295614E-02 .995184726672197 0
  outer loop
    vertex 19.3675917181511 97.3674587120307 207
    vertex 6.07884054926767E-15 99.275 22.51
    vertex 6.07884054926767E-15 99.275 207
  endloop
endfacet
facet normal 9.80171403295614E-02 .995184726672197 0
  outer loop
    vertex 19.3675917181511 97.3674587120307 207
    vertex 19.3675917181511 97.3674587120307 22.51
    vertex 6.07884054926767E-15 99.275 22.51
  endloop
endfacet
facet normal -9.80171403295613E-02 .995184726672197 0
  outer loop
    vertex 6.07884054926767E-15 99.275 207
    vertex -19.3675917181511 97.3674587120307 22.51
    vertex -19.3675917181511 97.3674587120307 207
  endloop
endfacet
facet normal -9.80171403295613E-02 .995184726672197 0
  outer loop
    vertex 6.07884054926767E-15 99.275 207
    vertex 6.07884054926767E-15 99.275 22.51
    vertex -19.3675917181511 97.3674587120307 22.51
  endloop
endfacet
facet normal -.290284677254461 .956940335732209 0
  outer loop
    vertex -19.3675917181511 97.3674587120307 207
    vertex -37.9908977480443 91.718140590058 22.51
    vertex -37.9908977480443 91.718140590058 207
  endloop
endfacet
facet normal -.290284677254461 .956940335732209 0
  outer loop
    vertex -19.3675917181511 97.3674587120307 207
    vertex -19.3675917181511 97.3674587120307 22.51
    vertex -37.9908977480443 91.718140590058 22.51
  endloop
endfacet
facet normal -.471396736825998 .881921264348355 0
  outer loop
    vertex -37.9908977480443 91.718140590058 207
    vertex -55.154234883021 82.5441457613352 43
    vertex -55.154234883021 82.5441457613352 207
  endloop
endfacet
facet normal -.471396736825998 .881921264348355 0
  outer loop
    vertex -37.9908977480443 91.718140590058 207
    vertex -37.9908977480443 91.718140590058 43
    vertex -55.154234883021 82.5441457613352 43
  endloop
endfacet
facet normal -.634393284163646 .773010453362737 0
  outer loop
    vertex -55.154234883021 82.5441457613352 207
    vertex -70.1980257022945 70.1980257022945 43
    vertex -70.1980257022945 70.1980257022945 207
  endloop
endfacet
facet normal -.634393284163646 .773010453362737 0
  outer loop
    vertex -55.154234883021 82.5441457613352 207
    vertex -55.154234883021 82.5441457613352 43
    vertex -70.1980257022945 70.1980257022945 43
  endloop
endfacet
facet normal -.773010453362737 .634393284163646 0
  outer loop
    vertex -70.1980257022945 70.1980257022945 207
    vertex -82.5441457613352 55.154234883021 43
    vertex -82.5441457613352 55.154234883021 207
  endloop
endfacet
facet normal -.773010453362737 .634393284163646 0
  outer loop
    vertex -70.1980257022945 70.1980257022945 207
    vertex -70.1980257022945 70.1980257022945 43
    vertex -82.5441457613352 55.154234883021 43
  endloop
endfacet
facet normal -.881921264348355 .471396736825998 0
  outer loop
    vertex -82.5441457613352 55.154234883021 207
    vertex -91.718140590058 37.9908977480443 43
    vertex -91.718140590058 37.9908977480443 207
  endloop
endfacet
facet normal -.881921264348355 .471396736825998 0
  outer loop
    vertex -82.5441457613352 55.154234883021 207
    vertex -82.5441457613352 55.154234883021 43
    vertex -91.718140590058 37.9908977480443 43
  endloop
endfacet
facet normal -.956940335732209 .290284677254461 0
  outer loop
    vertex -91.718140590058 37.9908977480443 207
    vertex -97.3674587120307 19.3675917181511 22.51
    vertex -97.3674587120307 19.3675917181511 207
  endloop
endfacet
facet normal -.956940335732209 .290284677254461 0
  outer loop
    vertex -91.718140590058 37.9908977480443 207
    vertex -91.718140590058 37.9908977480443 22.51
    vertex -97.3674587120307 19.3675917181511 22.51
  endloop
endfacet
facet normal -.995184726672197 9.80171403295614E-02 0
  outer loop
    vertex -97.3674587120307 19.3675917181511 207
    vertex -99.275 0 22.51
    vertex -99.275 0 207
  endloop
endfacet
facet normal -.995184726672197 9.80171403295614E-02 0
  outer loop
    vertex -97.3674587120307 19.3675917181511 207
    vertex -97.3674587120307 19.3675917181511 22.51
    vertex -99.275 0 22.51
  endloop
endfacet
facet normal 0 0 1
  outer loop
    vertex -37.9908977480443 -104.5 43
    vertex -37.9908977480443 -91.718140590058 43
    vertex -71.2454488740221 -104.5 43
  endloop
endfacet
facet normal 0 0 1
  outer loop
    vertex -71.2454488740221 -104.5 43
    vertex -37.9908977480443 -91.718140590058 43
    vertex -55.154234883021 -82.5441457613352 43
  endloop
endfacet
facet normal 0 0 1
  outer loop
    vertex -71.2454488740221 -104.5 43
    vertex -55.154234883021 -82.5441457613352 43
    vertex -70.1980257022945 -70.1980257022945 43
  endloop
endfacet
facet normal 0 0 1
  outer loop
    vertex -71.2454488740221 -104.5 43
    vertex -70.1980257022945 -70.1980257022945 43
    vertex -104.5 -71.2454488740221 43
  endloop
endfacet
facet normal 0 0 1
  outer loop
    vertex -104.5 -71.2454488740221 43
    vertex -70.1980257022945 -70.1980257022945 43
    vertex -82.5441457613352 -55.154234883021 43
  endloop
endfacet
facet normal 0 0 1
  outer loop
    vertex -104.5 -71.2454488740221 43
    vertex -82.5441457613352 -55.154234883021 43
    vertex -91.718140590058 -37.9908977480443 43
  endloop
endfacet
facet normal 0 0 1
  outer loop
    vertex -104.5 -71.2454488740221 43
    vertex -91.718140590058 -37.9908977480443 43
    vertex -104.5 -37.9908977480443 43
  endloop
endfacet
facet normal 0 0 1
  outer loop
    vertex -104.5 37.9908977480443 43
    vertex -91.718140590058 37.9908977480443 43
    vertex -104.5 71.2454488740221 43
  endloop
endfacet
facet normal 0 0 1
  outer loop
    vertex -104.5 71.2454488740221 43
    vertex -91.718140590058 37.9908977480443 43
    vertex -82.5441457613352 55.154234883021 43
  endloop
endfacet
facet normal 0 0 1
  outer loop
    vertex -104.5 71.2454488740221 43
    vertex -82.5441457613352 55.154234883021 43
    vertex -70.1980257022945 70.1980257022945 43
  endloop
endfacet
facet normal 0 0 1
  outer loop
    vertex -104.5 71.2454488740221 43
    vertex -70.1980257022945 70.1980257022945 43
    vertex -71.2454488740221 104.5 43
  endloop
endfacet
facet normal 0 0 1
  outer loop
    vertex -71.2454488740221 104.5 43
    vertex -70.1980257022945 70.1980257022945 43
    vertex -55.154234883021 82.5441457613352 43
  endloop
endfacet
facet normal 0 0 1
  outer loop
    vertex -71.2454488740221 104.5 43
    vertex -55.154234883021 82.5441457613352 43
    vertex -37.9908977480443 91.718140590058 43
  endloop
endfacet
facet normal 0 0 1
  outer loop
    vertex -71.2454488740221 104.5 43
    vertex -37.9908977480443 91.718140590058 43
    vertex -37.9908977480443 104.5 43
  endloop
endfacet
facet normal 0 0 1
  outer loop
    vertex 104.5 104.5 43
    vertex 37.9908977480443 104.5 43
    vertex 37.9908977480443 91.718140590058 43
  endloop
endfacet
facet normal 0 0 1
  outer loop
    vertex 104.5 104.5 43
    vertex 37.9908977480443 91.718140590058 43
    vertex 55.154234883021 82.5441457613352 43
  endloop
endfacet
facet normal 0 0 1
  outer loop
    vertex 104.5 104.5 43
    vertex 55.154234883021 82.5441457613352 43
    vertex 70.1980257022945 70.1980257022945 43
  endloop
endfacet
facet normal 0 0 1
  outer loop
    vertex 104.5 104.5 43
    vertex 70.1980257022945 70.1980257022945 43
    vertex 82.5441457613352 55.154234883021 43
  endloop
endfacet
facet normal 0 0 1
  outer loop
    vertex 104.5 104.5 43
    vertex 82.5441457613352 55.154234883021 43
    vertex 91.718140590058 37.9908977480443 43
  endloop
endfacet
facet normal 0 0 1
  outer loop
    vertex 104.5 104.5 43
    vertex 91.718140590058 37.9908977480443 43
    vertex 104.5 37.9908977480443 43
  endloop
endfacet
facet normal 0 0 1
  outer loop
    vertex 104.5 -104.5 43
    vertex 104.5 -37.9908977480443 43
    vertex 91.718140590058 -37.9908977480443 43
  endloop
endfacet
facet normal 0 0 1
  outer loop
    vertex 104.5 -104.5 43
    vertex 91.718140590058 -37.9908977480443 43
    vertex 82.5441457613352 -55.154234883021 43
  endloop
endfacet
facet normal 0 0 1
  outer loop
    vertex 104.5 -104.5 43
    vertex 82.5441457613352 -55.154234883021 43
    vertex 70.1980257022945 -70.1980257022945 43
  endloop
endfacet
facet normal 0 0 1
  outer loop
    vertex 104.5 -104.5 43
    vertex 70.1980257022945 -70.1980257022945 43
    vertex 55.154234883021 -82.5441457613352 43
  endloop
endfacet
facet normal 0 0 1
  outer loop
    vertex 104.5 -104.5 43
    vertex 55.154234883021 -82.5441457613352 43
    vertex 37.9908977480443 -91.718140590058 43
  endloop
endfacet
facet normal 0 0 1
  outer loop
    vertex 104.5 -104.5 43
    vertex 37.9908977480443 -91.718140590058 43
    vertex 37.9908977480443 -104.5 43
  endloop
endfacet
facet normal 0 0 -1
  outer loop
    vertex 104.5 104.5 2
    vertex -104.5 71.2454488740221 2
    vertex -71.2454488740221 104.5 2
  endloop
endfacet
facet normal 0 0 -1
  outer loop
    vertex 104.5 104.5 2
    vertex -104.5 -71.2454488740221 2
    vertex -104.5 71.2454488740221 2
  endloop
endfacet
facet normal 0 0 -1
  outer loop
    vertex 104.5 104.5 2
    vertex -71.2454488740221 -104.5 2
    vertex -104.5 -71.2454488740221 2
  endloop
endfacet
facet normal 0 0 -1
  outer loop
    vertex 104.5 104.5 2
    vertex 104.5 -104.5 2
    vertex -71.2454488740221 -104.5 2
  endloop
endfacet
facet normal -1 0 0
  outer loop
    vertex -104.5 71.2454488740221 43
    vertex -104.5 71.2454488740221 2
    vertex -104.5 37.9908977480443 43
  endloop
endfacet
facet normal -1 0 0
  outer loop
    vertex -104.5 37.9908977480443 43
    vertex -104.5 71.2454488740221 2
    vertex -104.5 37.9908977480443 22.5
  endloop
endfacet
facet normal -1 0 0
  outer loop
    vertex -104.5 71.2454488740221 2
    vertex -104.5 -37.9908977480443 22.5
    vertex -104.5 37.9908977480443 22.5
  endloop
endfacet
facet normal -1 0 0
  outer loop
    vertex -104.5 71.2454488740221 2
    vertex -104.5 -71.2454488740221 2
    vertex -104.5 -37.9908977480443 22.5
  endloop
endfacet
facet normal -1 0 0
  outer loop
    vertex -104.5 -71.2454488740221 2
    vertex -104.5 -71.2454488740221 43
    vertex -104.5 -37.9908977480443 22.5
  endloop
endfacet
facet normal -1 0 0
  outer loop
    vertex -104.5 -37.9908977480443 43
    vertex -104.5 -37.9908977480443 22.5
    vertex -104.5 -71.2454488740221 43
  endloop
endfacet
facet normal 0 1 0
  outer loop
    vertex 104.5 104.5 43
    vertex 104.5 104.5 2
    vertex 37.9908977480443 104.5 43
  endloop
endfacet
facet normal 0 1 0
  outer loop
    vertex 104.5 104.5 2
    vertex 37.9908977480443 104.5 22.5
    vertex 37.9908977480443 104.5 43
  endloop
endfacet
facet normal 0 1 0
  outer loop
    vertex 104.5 104.5 2
    vertex -37.9908977480443 104.5 22.5
    vertex 37.9908977480443 104.5 22.5
  endloop
endfacet
facet normal 0 1 0
  outer loop
    vertex 104.5 104.5 2
    vertex -71.2454488740221 104.5 2
    vertex -37.9908977480443 104.5 22.5
  endloop
endfacet
facet normal 0 1 0
  outer loop
    vertex -71.2454488740221 104.5 2
    vertex -71.2454488740221 104.5 43
    vertex -37.9908977480443 104.5 22.5
  endloop
endfacet
facet normal 0 1 0
  outer loop
    vertex -37.9908977480443 104.5 43
    vertex -37.9908977480443 104.5 22.5
    vertex -71.2454488740221 104.5 43
  endloop
endfacet
facet normal 1 0 0
  outer loop
    vertex 104.5 -104.5 43
    vertex 104.5 -104.5 2
    vertex 104.5 -37.9908977480443 43
  endloop
endfacet
facet normal 1 0 0
  outer loop
    vertex 104.5 -104.5 2
    vertex 104.5 -37.9908977480443 22.5
    vertex 104.5 -37.9908977480443 43
  endloop
endfacet
facet normal 1 0 0
  outer loop
    vertex 104.5 -104.5 2
    vertex 104.5 37.9908977480443 22.5
    vertex 104.5 -37.9908977480443 22.5
  endloop
endfacet
facet normal 1 0 0
  outer loop
    vertex 104.5 -104.5 2
    vertex 104.5 104.5 2
    vertex 104.5 37.9908977480443 22.5
  endloop
endfacet
facet normal 1 0 0
  outer loop
    vertex 104.5 104.5 2
    vertex 104.5 104.5 43
    vertex 104.5 37.9908977480443 22.5
  endloop
endfacet
facet normal 1 0 0
  outer loop
    vertex 104.5 37.9908977480443 43
    vertex 104.5 37.9908977480443 22.5
    vertex 104.5 104.5 43
  endloop
endfacet
facet normal 0 -1 0
  outer loop
    vertex -71.2454488740221 -104.5 43
    vertex -71.2454488740221 -104.5 2
    vertex -37.9908977480443 -104.5 43
  endloop
endfacet
facet normal 0 -1 0
  outer loop
    vertex -71.2454488740221 -104.5 2
    vertex -37.9908977480443 -104.5 22.5
    vertex -37.9908977480443 -104.5 43
  endloop
endfacet
facet normal 0 -1 0
  outer loop
    vertex -71.2454488740221 -104.5 2
    vertex 37.9908977480443 -104.5 22.5
    vertex -37.9908977480443 -104.5 22.5
  endloop
endfacet
facet normal 0 -1 0
  outer loop
    vertex -71.2454488740221 -104.5 2
    vertex 104.5 -104.5 2
    vertex 37.9908977480443 -104.5 22.5
  endloop
endfacet
facet normal 0 -1 0
  outer loop
    vertex 104.5 -104.5 2
    vertex 104.5 -104.5 43
    vertex 37.9908977480443 -104.5 22.5
  endloop
endfacet
facet normal 0 -1 0
  outer loop
    vertex 37.9908977480443 -104.5 43
    vertex 37.9908977480443 -104.5 22.5
    vertex 104.5 -104.5 43
  endloop
endfacet
facet normal -.707106781186548 -.707106781186548 0
  outer loop
    vertex -104.5 -71.2454488740221 43
    vertex -71.2454488740221 -104.5 2
    vertex -71.2454488740221 -104.5 43
  endloop
endfacet
facet normal -.707106781186548 -.707106781186548 0
  outer loop
    vertex -104.5 -71.2454488740221 43
    vertex -104.5 -71.2454488740221 2
    vertex -71.2454488740221 -104.5 2
  endloop
endfacet
facet normal -.707106781186548 .707106781186548 0
  outer loop
    vertex -71.2454488740221 104.5 43
    vertex -104.5 71.2454488740221 2
    vertex -104.5 71.2454488740221 43
  endloop
endfacet
facet normal -.707106781186548 .707106781186548 0
  outer loop
    vertex -71.2454488740221 104.5 43
    vertex -71.2454488740221 104.5 2
    vertex -104.5 71.2454488740221 2
  endloop
endfacet
facet normal 0 1 0
  outer loop
    vertex -91.718140590058 -37.9908977480443 43
    vertex -91.718140590058 -37.9908977480443 22.51
    vertex -104.5 -37.9908977480443 43
  endloop
endfacet
facet normal 0 1 0
  outer loop
    vertex -91.718140590058 -37.9908977480443 22.51
    vertex -104.5 -37.9908977480443 22.5
    vertex -104.5 -37.9908977480443 43
  endloop
endfacet
facet normal 0 -1 0
  outer loop
    vertex -104.5 37.9908977480443 43
    vertex -91.718140590058 37.9908977480443 22.51
    vertex -91.718140590058 37.9908977480443 43
  endloop
endfacet
facet normal 0 -1 0
  outer loop
    vertex -91.718140590058 37.9908977480443 22.51
    vertex -104.5 37.9908977480443 43
    vertex -104.5 37.9908977480443 22.5
  endloop
endfacet
facet normal 1 0 0
  outer loop
    vertex -37.9908977480443 91.718140590058 43
    vertex -37.9908977480443 91.718140590058 22.51
    vertex -37.9908977480443 104.5 43
  endloop
endfacet
facet normal 1 0 0
  outer loop
    vertex -37.9908977480443 91.718140590058 22.51
    vertex -37.9908977480443 104.5 22.5
    vertex -37.9908977480443 104.5 43
  endloop
endfacet
facet normal -1 0 0
  outer loop
    vertex 37.9908977480443 104.5 43
    vertex 37.9908977480443 91.718140590058 22.51
    vertex 37.9908977480443 91.718140590058 43
  endloop
endfacet
facet normal -1 0 0
  outer loop
    vertex 37.9908977480443 91.718140590058 22.51
    vertex 37.9908977480443 104.5 43
    vertex 37.9908977480443 104.5 22.5
  endloop
endfacet
facet normal 0 -1 0
  outer loop
    vertex 91.718140590058 37.9908977480443 43
    vertex 91.718140590058 37.9908977480443 22.51
    vertex 104.5 37.9908977480443 43
  endloop
endfacet
facet normal 0 -1 0
  outer loop
    vertex 91.718140590058 37.9908977480443 22.51
    vertex 104.5 37.9908977480443 22.5
    vertex 104.5 37.9908977480443 43
  endloop
endfacet
facet normal 0 1 0
  outer loop
    vertex 104.5 -37.9908977480443 43
    vertex 91.718140590058 -37.9908977480443 22.51
    vertex 91.718140590058 -37.9908977480443 43
  endloop
endfacet
facet normal 0 1 0
  outer loop
    vertex 91.718140590058 -37.9908977480443 22.51
    vertex 104.5 -37.9908977480443 43
    vertex 104.5 -37.9908977480443 22.5
  endloop
endfacet
facet normal -1 0 0
  outer loop
    vertex 37.9908977480443 -91.718140590058 43
    vertex 37.9908977480443 -91.718140590058 22.51
    vertex 37.9908977480443 -104.5 43
  endloop
endfacet
facet normal -1 0 0
  outer loop
    vertex 37.9908977480443 -91.718140590058 22.51
    vertex 37.9908977480443 -104.5 22.5
    vertex 37.9908977480443 -104.5 43
  endloop
endfacet
facet normal 1 0 0
  outer loop
    vertex -37.9908977480443 -104.5 43
    vertex -37.9908977480443 -91.718140590058 22.51
    vertex -37.9908977480443 -91.718140590058 43
  endloop
endfacet
facet normal 1 0 0
  outer loop
    vertex -37.9908977480443 -91.718140590058 22.51
    vertex -37.9908977480443 -104.5 43
    vertex -37.9908977480443 -104.5 22.5
  endloop
endfacet
facet normal 2.37325863552906E-04 7.82358523688711E-04 .999999665795732
  outer loop
    vertex 37.9908977480443 104.5 22.5
    vertex 19.3675917181511 97.3674587120307 22.51
    vertex 37.9908977480443 91.718140590058 22.51
  endloop
endfacet
facet normal 1.09840295278765E-04 1.11522723339056E-03 .999999372101467
  outer loop
    vertex 37.9908977480443 104.5 22.5
    vertex 6.07884054926767E-15 99.275 22.51
    vertex 19.3675917181511 97.3674587120307 22.51
  endloop
endfacet
facet normal -1.09840295278765E-04 1.11522723339056E-03 .999999372101467
  outer loop
    vertex -37.9908977480443 104.5 22.5
    vertex -19.3675917181511 97.3674587120307 22.51
    vertex 6.07884054926767E-15 99.275 22.51
  endloop
endfacet
facet normal -2.37325863552906E-04 7.82358523688711E-04 .999999665795732
  outer loop
    vertex -37.9908977480443 104.5 22.5
    vertex -37.9908977480443 91.718140590058 22.51
    vertex -19.3675917181511 97.3674587120307 22.51
  endloop
endfacet
facet normal 0 1.91387209290964E-03 .999998168545129
  outer loop
    vertex 37.9908977480443 104.5 22.5
    vertex -37.9908977480443 104.5 22.5
    vertex 6.07884054926767E-15 99.275 22.51
  endloop
endfacet
facet normal -7.82358523688711E-04 2.37325863552906E-04 .999999665795732
  outer loop
    vertex -104.5 37.9908977480443 22.5
    vertex -97.3674587120307 19.3675917181511 22.51
    vertex -91.718140590058 37.9908977480443 22.51
  endloop
endfacet
facet normal -1.11522723339056E-03 1.09840295278765E-04 .999999372101467
  outer loop
    vertex -104.5 37.9908977480443 22.5
    vertex -99.275 0 22.51
    vertex -97.3674587120307 19.3675917181511 22.51
  endloop
endfacet
facet normal -1.11522723339056E-03 -1.09840295278765E-04 .999999372101467
  outer loop
    vertex -104.5 -37.9908977480443 22.5
    vertex -97.3674587120307 -19.3675917181511 22.51
    vertex -99.275 0 22.51
  endloop
endfacet
facet normal -7.82358523688711E-04 -2.37325863552906E-04 .999999665795732
  outer loop
    vertex -104.5 -37.9908977480443 22.5
    vertex -91.718140590058 -37.9908977480443 22.51
    vertex -97.3674587120307 -19.3675917181511 22.51
  endloop
endfacet
facet normal -1.91387209290964E-03 0 .999998168545129
  outer loop
    vertex -104.5 37.9908977480443 22.5
    vertex -104.5 -37.9908977480443 22.5
    vertex -99.275 0 22.51
  endloop
endfacet
facet normal -2.37325863552906E-04 -7.82358523688711E-04 .999999665795732
  outer loop
    vertex -37.9908977480443 -104.5 22.5
    vertex -19.3675917181511 -97.3674587120307 22.51
    vertex -37.9908977480443 -91.718140590058 22.51
  endloop
endfacet
facet normal -1.09840295278765E-04 -1.11522723339056E-03 .999999372101467
  outer loop
    vertex -37.9908977480443 -104.5 22.5
    vertex -6.07884054926767E-15 -99.275 22.51
    vertex -19.3675917181511 -97.3674587120307 22.51
  endloop
endfacet
facet normal 1.09840295278765E-04 -1.11522723339056E-03 .999999372101467
  outer loop
    vertex 37.9908977480443 -104.5 22.5
    vertex 19.3675917181511 -97.3674587120307 22.51
    vertex -6.07884054926767E-15 -99.275 22.51
  endloop
endfacet
facet normal 2.37325863552906E-04 -7.82358523688711E-04 .999999665795732
  outer loop
    vertex 37.9908977480443 -104.5 22.5
    vertex 37.9908977480443 -91.718140590058 22.51
    vertex 19.3675917181511 -97.3674587120307 22.51
  endloop
endfacet
facet normal 0 -1.91387209290964E-03 .999998168545129
  outer loop
    vertex -37.9908977480443 -104.5 22.5
    vertex 37.9908977480443 -104.5 22.5
    vertex -6.07884054926767E-15 -99.275 22.51
  endloop
endfacet
facet normal 7.82358523688711E-04 -2.37325863552906E-04 .999999665795732
  outer loop
    vertex 104.5 -37.9908977480443 22.5
    vertex 97.3674587120307 -19.3675917181511 22.51
    vertex 91.718140590058 -37.9908977480443 22.51
  endloop
endfacet
facet normal 1.11522723339056E-03 -1.09840295278765E-04 .999999372101467
  outer loop
    vertex 104.5 -37.9908977480443 22.5
    vertex 99.275 0 22.51
    vertex 97.3674587120307 -19.3675917181511 22.51
  endloop
endfacet
facet normal 1.11522723339056E-03 1.09840295278765E-04 .999999372101467
  outer loop
    vertex 104.5 37.9908977480443 22.5
    vertex 97.3674587120307 19.3675917181511 22.51
    vertex 99.275 0 22.51
  endloop
endfacet
facet normal 7.82358523688711E-04 2.37325863552906E-04 .999999665795732
  outer loop
    vertex 104.5 37.9908977480443 22.5
    vertex 91.718140590058 37.9908977480443 22.51
    vertex 97.3674587120307 19.3675917181511 22.51
  endloop
endfacet
facet normal 1.91387209290964E-03 0 .999998168545129
  outer loop
    vertex 104.5 -37.9908977480443 22.5
    vertex 104.5 37.9908977480443 22.5
    vertex 99.275 0 22.51
  endloop
endfacet
facet normal 1 0 0
  outer loop
    vertex 116 -15.5 0
    vertex 116 15.5 10
    vertex 116 -15.5 10
  endloop
endfacet
facet normal 1 0 0
  outer loop
    vertex 116 -15.5 0
    vertex 116 15.5 0
    vertex 116 15.5 10
  endloop
endfacet
facet normal 0 1 0
  outer loop
    vertex 116 15.5 10
    vertex 116 15.5 0
    vertex 104.5 15.5 10
  endloop
endfacet
facet normal 0 1 0
  outer loop
    vertex 104.5 15.5 10
    vertex 116 15.5 0
    vertex 104.5 15.5 2
  endloop
endfacet
facet normal 0 1 0
  outer loop
    vertex 104.5 15.5 2
    vertex 116 15.5 0
    vertex 28 15.5 2
  endloop
endfacet
facet normal 0 1 0
  outer loop
    vertex 28 15.5 0
    vertex 28 15.5 2
    vertex 116 15.5 0
  endloop
endfacet
facet normal -1 0 0
  outer loop
    vertex 28 15.5 0
    vertex 28 -15.5 2
    vertex 28 15.5 2
  endloop
endfacet
facet normal -1 0 0
  outer loop
    vertex 28 15.5 0
    vertex 28 -15.5 0
    vertex 28 -15.5 2
  endloop
endfacet
facet normal 0 -1 0
  outer loop
    vertex 104.5 -15.5 2
    vertex 28 -15.5 2
    vertex 28 -15.5 0
  endloop
endfacet
facet normal 0 -1 0
  outer loop
    vertex 104.5 -15.5 2
    vertex 28 -15.5 0
    vertex 116 -15.5 0
  endloop
endfacet
facet normal 0 -1 0
  outer loop
    vertex 104.5 -15.5 2
    vertex 116 -15.5 10
    vertex 104.5 -15.5 10
  endloop
endfacet
facet normal 0 -1 0
  outer loop
    vertex 104.5 -15.5 2
    vertex 116 -15.5 0
    vertex 116 -15.5 10
  endloop
endfacet
facet normal -1 0 0
  outer loop
    vertex 104.5 15.5 10
    vertex 104.5 -15.5 2
    vertex 104.5 -15.5 10
  endloop
endfacet
facet normal -1 0 0
  outer loop
    vertex 104.5 15.5 10
    vertex 104.5 15.5 2
    vertex 104.5 -15.5 2
  endloop
endfacet
facet normal 0 0 1
  outer loop
    vertex 116 -15.5 10
    vertex 116 15.5 10
    vertex 104.5 -15.5 10
  endloop
endfacet
facet normal 0 0 1
  outer loop
    vertex 104.5 -15.5 10
    vertex 116 15.5 10
    vertex 104.5 15.5 10
  endloop
endfacet
facet normal 0 0 1
  outer loop
    vertex 104.5 -15.5 2
    vertex 104.5 15.5 2
    vertex 28 -15.5 2
  endloop
endfacet
facet normal 0 0 1
  outer loop
    vertex 104.5 15.5 2
    vertex 28 15.5 2
    vertex 28 -15.5 2
  endloop
endfacet
facet normal 0 0 -1
  outer loop
    vertex 116 -15.5 0
    vertex 28 -15.5 0
    vertex 116 15.5 0
  endloop
endfacet
facet normal 0 0 -1
  outer loop
    vertex 116 15.5 0
    vertex 28 -15.5 0
    vertex 28 15.5 0
  endloop
endfacet
facet normal -1 0 0
  outer loop
    vertex -116 15.5 0
    vertex -116 -15.5 10
    vertex -116 15.5 10
  endloop
endfacet
facet normal -1 0 0
  outer loop
    vertex -116 15.5 0
    vertex -116 -15.5 0
    vertex -116 -15.5 10
  endloop
endfacet
facet normal 0 -1 0
  outer loop
    vertex -116 -15.5 10
    vertex -116 -15.5 0
    vertex -104.5 -15.5 10
  endloop
endfacet
facet normal 0 -1 0
  outer loop
    vertex -104.5 -15.5 10
    vertex -116 -15.5 0
    vertex -104.5 -15.5 2
  endloop
endfacet
facet normal 0 -1 0
  outer loop
    vertex -104.5 -15.5 2
    vertex -116 -15.5 0
    vertex -28 -15.5 2
  endloop
endfacet
facet normal 0 -1 0
  outer loop
    vertex -28 -15.5 0
    vertex -28 -15.5 2
    vertex -116 -15.5 0
  endloop
endfacet
facet normal 1 0 0
  outer loop
    vertex -28 -15.5 0
    vertex -28 15.5 2
    vertex -28 -15.5 2
  endloop
endfacet
facet normal 1 0 0
  outer loop
    vertex -28 -15.5 0
    vertex -28 15.5 0
    vertex -28 15.5 2
  endloop
endfacet
facet normal 0 1 0
  outer loop
    vertex -104.5 15.5 2
    vertex -28 15.5 2
    vertex -28 15.5 0
  endloop
endfacet
facet normal 0 1 0
  outer loop
    vertex -104.5 15.5 2
    vertex -28 15.5 0
    vertex -116 15.5 0
  endloop
endfacet
facet normal 0 1 0
  outer loop
    vertex -104.5 15.5 2
    vertex -116 15.5 10
    vertex -104.5 15.5 10
  endloop
endfacet
facet normal 0 1 0
  outer loop
    vertex -104.5 15.5 2
    vertex -116 15.5 0
    vertex -116 15.5 10
  endloop
endfacet
facet normal 1 0 0
  outer loop
    vertex -104.5 -15.5 10
    vertex -104.5 15.5 2
    vertex -104.5 15.5 10
  endloop
endfacet
facet normal 1 0 0
  outer loop
    vertex -104.5 -15.5 10
    vertex -104.5 -15.5 2
    vertex -104.5 15.5 2
  endloop
endfacet
facet normal 0 0 1
  outer loop
    vertex -116 15.5 10
    vertex -116 -15.5 10
    vertex -104.5 15.5 10
  endloop
endfacet
facet normal 0 0 1
  outer loop
    vertex -104.5 15.5 10
    vertex -116 -15.5 10
    vertex -104.5 -15.5 10
  endloop
endfacet
facet normal 0 0 1
  outer loop
    vertex -104.5 15.5 2
    vertex -104.5 -15.5 2
    vertex -28 15.5 2
  endloop
endfacet
facet normal 0 0 1
  outer loop
    vertex -104.5 -15.5 2
    vertex -28 -15.5 2
    vertex -28 15.5 2
  endloop
endfacet
facet normal 0 0 -1
  outer loop
    vertex -116 15.5 0
    vertex -28 15.5 0
    vertex -116 -15.5 0
  endloop
endfacet
facet normal 0 0 -1
  outer loop
    vertex -116 -15.5 0
    vertex -28 15.5 0
    vertex -28 -15.5 0
  endloop
endfacet
endsolid CHEMI-E55-L
